<?xml version="1.0" encoding="utf-8"?>
<!-- Generator: Adobe Illustrator 16.0.0, SVG Export Plug-In . SVG Version: 6.00 Build 0)  -->
<!DOCTYPE svg PUBLIC "-//W3C//DTD SVG 1.1//EN" "http://www.w3.org/Graphics/SVG/1.1/DTD/svg11.dtd">
<svg version="1.1" id="Layer_1" xmlns="http://www.w3.org/2000/svg" xmlns:xlink="http://www.w3.org/1999/xlink" x="0px" y="0px"
	 width="800px" height="800px" viewBox="0 0 800 800" style="enable-background:new 0 0 800 800;" xml:space="preserve">
<style type="text/css">
<![CDATA[
	.st0{fill:#F2F2F2;stroke:#999999;stroke-miterlimit:10;}
]]>
</style>
<path id="lodzkie" class="st0" d="M439.6,503.5c1.9-1.3,3.5-2.6,5-3.8c0.8-0.5,0.9-1.2,0.5-2.1c-0.5-0.9-0.3-1.8,0.5-2.6
	c1.1-1,1.5-2,1.5-2.8c-0.3-0.9-0.5-1.5-0.5-2v-4c0-0.8,0.2-1.5,0.3-2l0.2-0.7l1.5,0.8c1.2,0.8,2.2,1.4,3,2.2c1.4,1.1,2.7,2.4,4,3.7
	c2.2,2,3,2.8,2.5,2.3l2.8-4.5c0.8-1.3,1.1-2.4,0.9-3.3c-0.5-1.1-0.8-2-0.9-3c-0.1-1.1-0.4-1.5-0.8-1.2l-0.7,0.7c-1.5,0-2.8,0-4-0.2
	c-0.8-0.1-1.1-0.4-1-1.1l0.2-0.9l2.8-3.3l0.2-2.7l0.8-3.3l1.2-0.5l2.8,0.3l3.5-2l8.2-0.3c2.3,0,3-0.4,2.2-1
	c-0.9-0.6-1.9-1.9-2.9-3.6l5.2,0.4c1.4,0.2,2.3,0.5,2.8,1c1.4-0.5,2.1-1.2,2.2-2c0.2-0.4,0-0.8-0.3-0.9c-0.8-0.5-1.6-1-2.4-1.9
	c-1-1-1.4-1.7-1-2.1c0.1-0.3,0.4-0.4,0.7-0.4l1-0.2c0.6-0.3,1.3-0.7,1.8-1.3c0.2-0.2,0.4-0.4,0.5-0.6c0.2-0.3,0.2-0.5,0.1-0.8
	l-0.4-0.6c0-0.2,0.2-0.5,0.3-1c0.3-0.8,0.9-1.6,1.7-2.5c0.7-0.6,1.3-1,1.6-1.1c0.2,0,0.6-0.3,0.9-0.9c0.3-0.4,1-1.1,1.8-2
	c0.9-0.7,1.6-1.6,2.2-2.7c0.8-1.1,1-2,1-2.8c-0.3-1-0.5-2-0.5-3c0-1.1-0.2-1.5-0.5-1.2l-0.7,0.7c-1.8,0.4-3.2,0.4-4,0
	c-0.9-0.3-1-1.4-0.3-3.2c0.3-0.5,0.6-1.2,1.1-2.1c0.2-0.4,0.5-0.8,0.7-1.1c-1.3-0.9-2.6-2-3.8-3.5c-0.6-0.9-0.9-1.5-0.7-1.8
	c0.4-0.4,0.5-0.8,0.5-1.2c0-0.6-0.4-1-1-1.3c-0.8-0.3-1.5-0.9-2-1.7c-0.5-1-0.5-1.6,0.2-1.8c1.5-0.6,2.3-1,2.8-1.5
	c0.8-0.8,1.8-0.9,3-0.3c0.7,0.3,1.5,0.8,2.5,1.3c0.5,0.1,1.5,0.4,3.4,1c1.8,0.5,3.1,0.8,3.8,0.8c2,0,3.2-1,3.8-2.8
	c0.2-0.7,0.3-1.3,0.3-2.1c-0.1-1.2-0.1-2.5-0.1-3.6c0-1.3-0.2-2.1-0.7-2.3c-0.8-0.4-1.4-1-1.8-1.7c-0.3-1-0.7-1.5-0.9-1.6
	c-0.1-0.2-0.3-0.6-0.6-1.4c-0.2-1.1,0.1-2,1.2-3c0.5-0.5,1.1-0.8,1.6-1c1-0.9-0.5-2.2-4.3-3.8c-1.1-0.5-2-0.8-2.7-1.1
	c-1.5-0.6-2.5-1.1-3.2-1.4c-0.3-0.1-0.6-0.2-0.7-0.2c-0.1-0.1-0.1-0.2-0.1-0.3c0,0,0.3,0.3,0.8,0.5c-0.3-0.6-1.4-1.7-2.1-2.2
	c-0.5-0.4-1.5-1-3-1.8c-1.1-0.6-1.8-0.7-2.2-0.5c-0.2,0.6-0.5,1-1,1.3c-4.6,0.1-7,0.5-8,0.5c-0.5,0-1,0-1.7,0.2
	c-0.8,0.2-1.5,0.3-2.3,0.3c-0.8,0-1.1-0.2-1-0.5c0.6-0.9,1-1.5,1-2c0.1-0.8,0.5-1.3,1.3-1.6c1.1-0.4,1.9-1,2.4-1.7
	c0.8-0.9,0.8-1.5,0.3-1.6c-1.3-0.1-2.3-0.4-3.3-0.9c-1.2-0.5-2-0.8-2.1-1c-0.1,0-0.1-0.4-0.1-1.2c0-0.8,0.5-1.3,1.5-1.6
	c0.5-0.2,1-0.2,1.5-0.2c0.5-1.2,0.8-2.4,1-3.7c0.1-0.9,0-1.5-0.1-2.1c-0.2-0.6-0.5-1-0.7-1.4c-0.2-0.5-0.9-1-2.2-1.2l-2.8-0.6
	c-0.7-0.2-1.2-0.4-1.6-0.5c-0.6-0.3-1.2-0.6-1.9-1c-0.6-0.4-1.4-1-2.4-2l-1.3-1.2v-5.5c0-1.5-0.3-2.2-0.7-2.3
	c-1.3-0.1-2.7-0.4-4.3-1c-1.8-0.7-2.6-1-2.5-1.2c0.6-0.3,0.9-0.5,0.7-0.8c-0.2-0.5-0.5-0.9-0.7-1c-1.1,0-2.4-0.2-4-0.5
	c-2-0.3-2.8-0.1-2.5,0.6c0.1,0.4,0.5,0.7,1,1.2l-1.5,1.2c-0.5,0.5-1.1,0.7-1.6,0.8h-3.7c-1.3,0-2-0.1-2.2-0.2c0.1,0-0.3,0.2-1.3,0.4
	c-1.1,0.3-2,0.6-2.6,1l-0.6,0.5c-0.1,0-0.8-0.7-1.8-2.2c-0.5-0.9-0.9-1.3-1-1.3c-0.5,0.3-0.9,0.5-1.2,0.5h-2
	c-0.7-0.2-1.3-0.7-1.8-1.5c-0.8-1-1.5-2.1-2-3.2c-0.2-0.8-0.9-1.2-1.9-1.2l-1.3,0.2c-0.5-0.1-1-0.2-1.7-0.4
	c-1.2-0.4-3.7-2.3-7.4-5.6c-0.2,0.2-0.2,0.2-0.4,0.4l-4.3,3c-1.3,0.4-2.5,0.7-3.7,0.7c-1-0.4-1.8-0.8-2.3-1
	c-0.9-0.4-1.8,0.1-2.7,1.3c-0.3,0.3-0.5,0.6-0.6,0.8c-0.7,1-1.2,1.8-1.5,2.5c-0.2,0.7-0.4,1.5-0.4,2.4c0,0.6,0.7,1.1,2,1.6
	c1.7,0.5,2.8,1,3.2,1.7c0.7,0.8,0.8,1.6,0.5,2.4c-0.2,0.5-0.4,0.8-0.7,1l-2.8,0.3l-3.5-0.3c-0.3,0-0.7,0-1.2,0.2
	c-1,0.3-1.7,0.9-2.3,1.8c-0.2,0.5-0.9,1.1-2.2,1.9c-0.5,0.4-0.3,1,0.5,1.9c1.5,1.5,2.7,3.1,3.5,4.8c-0.7,0.6-1.6,1.1-2.8,1.4
	c-0.7,0.2-1.8,0.4-3.2,0.5l-2,0.1l-2.3,2.2l-4.7-0.5v-0.4c-0.1,0-0.1,0.8-0.3,2.4c0,1.3-0.2,2.5-0.3,3.6c-0.1,0.8,0.1,1.8,0.3,2.9
	c0.5,1.9,1.5,3.6,2.8,5.5l0.7-0.1c0.3,0.2,0,1-0.7,2.4c-0.6,1.1-1.4,2.4-2.3,3.9c-1,1.5-1.7,2.7-2.2,3.5c-0.7,1.2-1.8,1.9-3.5,1.9
	c-1.8,0-3-0.1-3.5-0.1c-4.7-0.8-7.9-0.3-10.3,3c0,0.2-0.1,0.5-0.2,0.8c-0.3,1.6-0.7,3.8-1.1,6.7c-0.4,3.1-0.7,5.1-0.7,6
	c0,1-1.1,2.5-3.5,4.5l0.3,0.2c0.2,0.4,0.4,1.4,0.5,2.8c0,0.9,0.5,2.2,1.2,3.9c0.7,1.2,0.8,2.5,0.5,3.9c-0.2,1.1-0.4,2.4-0.5,3.6
	c-0.1,0.9-0.5,2-1.2,3.1c-0.8,1.2-1.7,2.1-2.8,2.8c-0.5,0.4-1,0.5-1.5,0.7c0.2-0.4,0.2-0.9,0.1-1.4c-0.1-1-0.4-1.7-1-1.8l-5-1.3
	c-0.3-0.6-0.5-1-0.8-1.3c-0.5-0.6-0.8-0.1-1,1.3c-0.3,2.3-0.3,4.2,0,5.5c-1.7,1.8-2.9,2.8-3.7,3c-0.4,0.1-0.8-0.1-1.4-0.3
	c-0.3-0.2-0.6,0-0.9,0.5c-0.3,0.6-0.4,1.2-0.3,1.7c0,0.4,0.1,1.3,0.3,2.9c0.2,2,0.3,4,0.3,6.2c1.5,0.3,2.7,0.2,3.7-0.5
	c0.6-0.4,0.9,0.1,0.8,1.6c0,0.8-0.1,2.7-0.3,5.4c0,1.7-0.1,2.9-0.2,3.4c-0.1,0.3-0.1,0.3-0.2,0.4l3.4,1.5h2.5l2.8,1.2l0.9,0.1
	c0.8,0.1,1.6,0.2,2.5,0.4l5.3,1.3l4.7,2.4l2,1.8v-2.8l2-1h1.5c0.9,0.2,1.5,0.9,1.5,2c0.1,0.9,0,1.6-0.4,2.2
	c-0.1,0.3,0.1,0.7,0.7,1.1l3,2.1l9.1-2.5c0.6-0.3,1.5-0.2,2.6,0.5c1.2,0.6,2.3,0.6,3.2,0.1l1.1-1.1c-0.3-0.8-0.5-1.5-0.7-2
	c-0.3-1.2,0-1.3,0.9-0.3s1.5,1.7,1.7,2.1c0.4,0.7,0.8,1.3,1.1,1.7c0.7,1,1.7,2,2.7,2.8c1.1,0.9,2,1.4,2.8,1.7c0.2,0.1,0.6,0.2,1,0.4
	c0.3,0.1,1,0.3,2,0.6c0.9,0.2,1.9,0.5,3,0.6c1,0.2,1.8,0.4,2.5,0.6c1.4,0.5,2.2,0.8,2.5,0.8l1.5-0.8c0.1-0.2,0.2-0.5,0.4-0.7
	c0.3-0.6,0.8-0.9,1.3-1c0.3,0,0.8-0.5,1.2-1.4c0.3-0.7,0.8-0.6,1.3,0.1c0.7,0.9,1,1.5,1.1,1.9c0.1,0.2,0.1,0.7-0.1,1.4
	c0,0.7,0.3,1.1,0.7,1.5c0.2,0.1,0.4,0.2,0.6,0.2l1.5,0.2c1,0.2,1.5,0.6,1.7,1.1c0.4,0.8,0.7,1.9,0.8,3.2c2.7,0.6,4.3,3.4,4.9,8.4
	l1.1,0.4c0-0.2,0.2-0.3,0.4-0.5c0.5-0.5,1.1-0.8,2.1-1c3-0.7,4.6-0.5,5,0.5c0.4,0.8,0.9,1.7,1.7,2.7l0.6,0.6
	c0.5,0.4,1.1,0.6,1.7,0.7c1,0.1,1.9,0.1,2.7,0l1.5-0.3c-0.1,0-0.1-0.1-0.2-0.1c0.1,0,0.1,0.1,0.2,0.1l0,0L439.6,503.5z"/>
<path id="kujawsko-pomorskie" class="st0" d="M297.4,228c-0.2,0.6-0.3,1.1-0.7,1.5c-0.3,0.3-0.9,0.8-1.8,1.5c-1,0.8-1.7,1.3-1.9,1.5
	c-0.4,0.5-0.6,1-0.6,1.8c0,0.2,0.2,0.7,0.4,1.7c0.3,0.6,0.1,1.1-0.4,1.5l-2.7,2.3c-1.1-0.5-1.9-0.8-2.5-0.8c-1.2,0-0.5,1,2,3.3
	c3,2.7,5,4.5,5.9,5.4c0.9,1,1.4,1.9,1.6,2.8c0,0.5,0.2,1.3,0.5,2.2c0.3,0.8,0.5,1.3,0.5,1.8c0,0.7-0.3,1.3-0.7,1.9s-0.9,1.1-1.6,1.4
	c-0.6,0.2-1.2,0.3-2.2,0.4l-1.3,0.1c-0.3,0.1-0.6,0.2-1,0.5c-0.7,0.5-1.2,1-1.5,1.7c-0.3,0.7-0.6,1.3-0.8,2.2
	c-0.1,0.4-0.2,0.8-0.2,1.1l0.4-0.3c0.4,0,0.7,0.2,1.1,0.8c0.7,0.8,1.2,1.5,1.5,2.2h0.3c0.1,0.2,0.1,0.6,0,1.3
	c-0.2,0.5-0.5,0.9-0.8,1.3c-0.2,0.4-0.4,0.7-0.5,1.2c-0.2,0.8-0.2,1.6-0.2,2.5c0,1.3-0.4,2.5-1,3.7c-0.7,0.8-1.1,1.3-1.3,1.6
	c-0.2,0.4-0.3,1.1-0.2,2.2c0.1,1.1,0.5,2.1,1.5,3c0.7,0.7,1.5,1.2,2.5,1.5c0.5,0.1,2,0.5,4.5,1.2c2.2,0.8,3.5,1.7,3.7,2.8
	c0.2,0.8,0.4,1.8,0.9,3.2c0.2,1,0.1,1.9-0.1,2.8c-0.3,0.6-0.5,1.4-0.9,2.2c-0.2,0.5-0.2,1.1-0.1,1.8c0,0.2,0.4,0.7,1.1,1.3
	c0.4,0.3,0,0.7-0.9,1.2c-1.1,0.5-2,0.9-3,1.2l-1,0.3l-0.7,0.8c-0.4,0.7-0.2,1.4,0.5,1.9c1,0.8,1.9,1.8,2.7,2.8
	c-0.3,0-0.5,0.2-0.6,0.4c-0.4,0.4-0.1,0.9,0.6,1.6c1.2,1,2.5,1.5,4,1.7l4.3-0.7l-4.3,0.7l2.4-0.2c1.7,0,2.6,0.3,2.9,1
	c0,0,0.1,0.5,0.2,1.3c0.1,0.2,0.3,0.7,0.8,1.2c0.6,0.8,1.5,1.3,2.5,1.5h1.7l1.3-0.5l2-0.5l3.7,0.2l2,2.3l0.5,1.1
	c0.5,0.9,1.2,1.4,2,1.9c1.4,0.6,3.1,1.2,5.3,1.7l2,1l-0.4,0.9c0,0.6,0.4,1.2,1.1,1.6c0.3,0.1,1.3-0.2,3.2-0.8
	c1.3-0.5,2.3,0.2,3.1,2.1c0.5,1.5,1.1,3.1,1.6,4.7c0.4,0.7,0.8,1.1,1.4,1.3c0.8,0.1,2.1,0.2,4,0.2l0.2-0.1c0.4-0.1,0.9-0.1,1.5-0.1
	c1,0,2.2-0.2,3.7-0.5l1-1.1c0.8-0.7,1.3-1.4,1.5-1.9c0.5-0.9,1-1.4,1.5-1.5l0.2,0.1c0.1,0.2,0.1,0.6,0.1,1.1c0,0.3,0,0.6-0.2,1
	c-0.1,0.2,0,0.6,0.2,1.3c0.2,0.7,0.8,1.3,2,1.9c0.5,0.2,1,0.4,1.5,0.6h3.2l1-0.3c0.7-0.2,1.3-0.2,1.8,0c0.9,0.3,1.9,0.7,3.2,1
	l0.5,0.3c0.5,0.4,0.9,0.8,1.3,1.5c0.7,1,2.1,2.1,4.2,3.5h0.4c0.3,0.4,0.6,1,0.9,2.2c0.5,1.8,1.6,4.1,3.2,6.8l1.5,1l1.5-0.3
	c1.2-0.2,1.8-1,1.8-2.3c-0.1-1.4,0.8-1.9,2.7-1.5c1.9,0.3,3.1,0.1,3.8-0.7c0.7-0.7,1.1-1.5,1.5-2.4c0.1-0.3,0.2-0.6,0.2-0.8
	c0,0.2-0.1,0.5-0.2,0.8l2,2.7c0.5,0.3,1,0.8,1.2,1.5c0.3,0.5,1,1.2,2.2,2.2c0.1-0.2,0.3-0.5,0.6-0.8c0.9-1.2,1.8-1.7,2.7-1.3
	c0.5,0.2,1.3,0.6,2.3,1c1.2,0,2.4-0.3,3.7-0.7l4.3-3c0.2-0.2,0.2-0.2,0.4-0.4c0.5-0.6,0.8-1.5,0.6-2.4c0-1.5,0.1-2.8,0.2-3.8
	c0.2-0.6,1-1.4,2.5-2.5c0.8-0.6,1.5-1,2.3-1.5c0.2-0.1,0.3-0.5,0.4-1.1c0-1.3-0.4-3-1.4-5.3c-1-2.4-1.2-3.4-0.7-3.1
	c0.2,0.2,0.5,0.5,0.9,1.1l4.5-2.6l-1-1.2c-1-0.5-2.5-1.8-4.5-3.8c-1.2-1.2-1.5-1.8-0.7-1.7c0.3,0.1,0.9,0.2,1.5,0.5l2.7-1.5l0.8-3.3
	l1.5-2.4l4.5-2.7c-0.7-0.9-1.5-2-2.3-3.1c-0.6-1-1.2-1.6-1.7-1.9c-0.1-0.1-0.8-0.4-2.3-0.9c-0.9-0.3-1.3-0.7-1.2-1.3l0.5-0.7
	l1.8-0.8c1.4-1,2.5-2.3,3.4-3.9c0.9-1.4,0.6-2.1-0.8-2.1c-1.5,0.2-2.3,0-2.2-0.6c0.5-2.3,1.3-4.2,2.3-5.8c0.8-1.4,1.6-2.4,2.2-3
	l2-0.8l4.5,1.8c1,0.4,1.6,0.6,2,0.9v-1.4c0-2-0.5-4.9-1.5-8.7c-0.5-2.2-0.9-3.3-1.2-3.4c-0.2,0-0.5-0.5-0.8-1.4
	c-0.3-1.1-0.4-1.8-0.1-1.7c0.7,0.1,1.4-0.1,1.9-0.5c0.7-0.8,1.6-1.3,2.7-1.6c0.7-0.2,2.1-0.6,4.3-1.2c0.2-0.1,0.4-0.1,0.6-0.1
	l-0.1-0.8l-1.3-4l-1.7-0.5c-0.3-0.4-0.7-0.8-1-1.4c-0.5-1.1-0.7-2.2-0.5-3.3c0.2-1.2,0.6-1.8,1.2-2c0.3,0,0.5,0,0.8,0.2l-1-3.2
	c-0.2-0.7-0.5-1.3-1-2.1c-0.6-0.9-1-1.6-1.3-2.2c-0.2-0.7-1-1.3-2-1.5c-1.9-0.5-3-0.9-3.7-1.2c-1.2-0.7-2.2-0.9-3.2-0.8l-1.1,0.5
	c-2.3-0.4-3.7-0.9-4.2-1.7c-0.1-0.3-0.5-0.8-1.3-1.7c-0.7-0.8-1.5-2-2.2-3.3c-0.8-1.5-1.3-1.8-1.3-1.2c0,0.4-0.1,1.2-0.2,2.4
	c-0.3,0.6-0.8,0.9-1.8,1c-0.9,0-1.7-0.2-2.5-0.7c-0.6-0.5-1-0.8-1.2-1.2c0-0.1-0.1-0.5-0.3-1.3c-0.3-1.7-0.6-3.1-1-4.3
	c-0.2-0.7-0.2-1.4-0.3-2.2c0-1.5-0.1-2.3-0.2-2.8c0-1.2-0.4-2.1-0.8-2.8c-0.2-0.4-1.5-2.1-3.7-4.9c0-0.1-0.2-0.2-0.2-0.3l-0.3-0.4
	c0,0,0-0.1-0.1-0.1c-1.4-1.7-2.5-2.3-3.2-1.7c-1.3,1.2-2.4,1.7-3.2,1.7c-1.5-0.1-2.8-0.2-4-0.1c-1,0.1-1.9,0.1-2.5,0.1
	c-1,0-1.8,0-2.6-0.2c-1.1-0.1-2.9-0.6-5.1-1.3c-2-0.7-2.7-1-1.8-1.2c0.5,0,1.2-0.1,2,0c0-1,0-2.8-0.2-5.3c-0.1-1.5-0.5-2.2-1.1-2.2
	c-0.9,0.5-1.7,0.7-2.2,0.7s-1.2,0.3-1.9,0.7c-1,0.6-1.8,1.1-2.3,1.3c-0.8,0.3-2,0.5-3.5,0.5h-2v-2c0-0.5-0.5-0.9-1.5-1.2
	c-1.4-0.2-2.5-0.4-3.3-0.5c-0.9-0.3-1.7-0.1-2.5,0.4l-1,0.8h-5.5c-1.3,0-2.3,0-2.8-0.1c-0.7-0.1-1.4-0.3-2.2-0.6
	c-0.5-0.3-0.7-0.5-0.5-0.8c0.5-0.3,0.8-0.7,0.8-1c0.1-0.5,0-0.9-0.3-1.3c-0.6-0.7-1-1.2-1.2-1.7c-0.3-0.7-1.1-1-2.2-1l-3,0.3
	c-1.3-0.2-2.5-0.1-3.5,0.3c-1.5,0.5-2.4,1.6-2.8,3.2c-0.3,1.4-0.8,1.8-1.6,1.2l-0.9-1.5c-0.5-0.2-1.3-0.8-2.5-2
	c-0.6-0.7-1.3-0.9-2.1-0.7c-1.2,0.5-2.1,0.7-2.4,0.7c-1,0-1.5,0.3-1.6,0.8c-0.1,0.2-0.1,0.5,0.1,0.7l0.5,3.8l-1.5,0.5h-5.5v2.5
	l3,1.7l-0.5,4c-0.1,0.5-0.5,0.8-1.1,0.7c-0.8-0.2-1.5-0.2-2.1-0.2c-0.8,0-1.4,0.2-1.8,0.5c-0.2,0.2-0.5,0.6-1,1.5
	c-0.5,0.8-1.5,1.3-3,1.3l-2.5-1h-2.7c-0.7,0-1.2-0.4-1.5-1.2c-0.2-0.3-0.5-1.1-0.8-2.6c-0.2-0.8-0.4-1.4-0.7-1.5
	c-0.4,0-1-0.2-1.5-0.5c-0.8-0.3-1.3-0.1-1.7,0.6c-0.6,1.2-1.2,2.4-1.8,3.4c-0.9,1.3-1.4,3.1-1.6,5.5c-0.2,1.2-0.3,2.3-0.2,3.3
	l0.1,0.1C297.6,227.1,297.5,227.5,297.4,228z"/>
<path id="wielkopolskie" class="st0" d="M339.4,464.9c0.2-2.7,0.3-4.6,0.3-5.4c0.1-1.5-0.2-2-0.8-1.6c-1,0.7-2.2,0.8-3.7,0.5
	c0-2.2-0.1-4.2-0.3-6.2c-0.2-1.6-0.3-2.5-0.3-2.9c-0.1-0.5,0-1.1,0.3-1.7c0.3-0.5,0.6-0.7,0.9-0.5c0.6,0.2,1,0.4,1.4,0.3
	c0.8-0.2,2-1.2,3.7-3c-0.3-1.3-0.3-3.2,0-5.5c0.2-1.4,0.5-1.9,1-1.3c0.3,0.3,0.5,0.7,0.8,1.3l5,1.3c0.6,0.1,0.9,0.8,1,1.8
	c0.1,0.5,0.1,1-0.1,1.4c0.5-0.2,1-0.3,1.5-0.7c1.1-0.7,2-1.6,2.8-2.8c0.7-1.1,1.1-2.2,1.2-3.1c0.1-1.2,0.3-2.5,0.5-3.6
	c0.3-1.4,0.2-2.7-0.5-3.9c-0.7-1.7-1.2-3-1.2-3.9c-0.1-1.4-0.3-2.4-0.5-2.8l-0.3-0.2c2.4-2,3.5-3.5,3.5-4.5c0-0.9,0.3-2.9,0.7-6
	c0.4-2.9,0.8-5.1,1.1-6.7c0.1-0.3,0.2-0.6,0.2-0.8c2.4-3.3,5.6-3.8,10.3-3c0.5,0,1.7,0.1,3.5,0.1c1.7,0,2.8-0.7,3.5-1.9
	c0.5-0.8,1.2-2,2.2-3.5c0.9-1.5,1.7-2.8,2.3-3.9c0.7-1.4,1-2.2,0.7-2.4l-0.7,0.1c-1.3-1.9-2.3-3.6-2.8-5.5c-0.2-1.1-0.4-2.1-0.3-2.9
	c0.1-1.1,0.3-2.3,0.3-3.6c0.2-1.6,0.2-2.4,0.3-2.4v0.4l4.7,0.5l2.3-2.2l2-0.1c1.4-0.1,2.5-0.3,3.2-0.5c1.2-0.3,2.1-0.8,2.8-1.4
	c-0.8-1.7-2-3.3-3.5-4.8c-0.8-0.9-1-1.5-0.5-1.9c1.3-0.8,2-1.4,2.2-1.9c0.6-0.9,1.3-1.5,2.3-1.8c0.5-0.2,0.9-0.2,1.2-0.2l3.5,0.3
	l2.8-0.3c0.3-0.2,0.5-0.5,0.7-1c0.3-0.8,0.2-1.6-0.5-2.4c-0.4-0.7-1.5-1.2-3.2-1.7c-1.3-0.5-2-1-2-1.6c0-0.9,0.2-1.7,0.4-2.4
	c0.3-0.7,0.8-1.5,1.5-2.5c-1.2-1-1.9-1.7-2.2-2.2c-0.2-0.7-0.7-1.2-1.2-1.5l-2-2.7c-0.4,0.9-0.8,1.7-1.5,2.4c-0.7,0.8-1.9,1-3.8,0.7
	c-1.9-0.4-2.8,0.1-2.7,1.5c0,1.3-0.6,2.1-1.8,2.3l-1.5,0.3l-1.5-1c-1.6-2.7-2.7-5-3.2-6.8c-0.3-1.2-0.6-1.8-0.9-2.2h-0.4
	c-2.1-1.4-3.5-2.5-4.2-3.5c-0.4-0.7-0.8-1.1-1.3-1.5l-0.5-0.3c-1.3-0.3-2.3-0.7-3.2-1c-0.5-0.2-1.1-0.2-1.8,0l-1,0.3h-3.2
	c-0.5-0.2-1-0.4-1.5-0.6c-1.2-0.6-1.8-1.2-2-1.9c-0.2-0.7-0.3-1.1-0.2-1.3c0.2-0.4,0.2-0.7,0.2-1c0-0.5,0-0.9-0.1-1.1l-0.2-0.1
	c-0.5,0.1-1,0.6-1.5,1.5c-0.2,0.5-0.7,1.2-1.5,1.9l-1,1.1c-1.5,0.3-2.7,0.5-3.7,0.5c-0.6,0-1.1,0-1.5,0.1l-0.2,0.1
	c-1.9,0-3.2-0.1-4-0.2c-0.6-0.2-1-0.6-1.4-1.3c-0.5-1.6-1.1-3.2-1.6-4.7c-0.8-1.9-1.8-2.6-3.1-2.1c-1.9,0.6-2.9,0.9-3.2,0.8
	c-0.7-0.4-1.1-1-1.1-1.6l0.4-0.9l-2-1c-2.2-0.5-3.9-1.1-5.3-1.7c-0.8-0.5-1.5-1-2-1.9l-0.5-1.1l-2-2.3l-3.7-0.2l-2,0.5l-1.3,0.5
	h-1.7c-1-0.2-1.9-0.7-2.5-1.5c-0.5-0.5-0.7-1-0.8-1.2c-0.1-0.8-0.2-1.3-0.2-1.3c-0.3-0.7-1.2-1-2.9-1l-2.4,0.2
	c-1.5-0.2-2.8-0.7-4-1.7c-0.7-0.7-1-1.2-0.6-1.6c0.1-0.2,0.3-0.4,0.6-0.4c-0.8-1-1.7-2-2.7-2.8c-0.7-0.5-0.9-1.2-0.5-1.9l0.7-0.8
	l1-0.3c1-0.3,1.9-0.7,3-1.2c0.9-0.5,1.3-0.9,0.9-1.2c-0.7-0.6-1.1-1.1-1.1-1.3c-0.1-0.7-0.1-1.3,0.1-1.8c0.4-0.8,0.6-1.6,0.9-2.2
	c0.2-0.9,0.3-1.8,0.1-2.8c-0.5-1.4-0.7-2.4-0.9-3.2c-0.2-1.1-1.5-2-3.7-2.8c-2.5-0.7-4-1.1-4.5-1.2c-1-0.3-1.8-0.8-2.5-1.5
	c-1-0.9-1.4-1.9-1.5-3c-0.1-1.1,0-1.8,0.2-2.2c0.2-0.3,0.6-0.8,1.3-1.6c0.6-1.2,1-2.4,1-3.7c0-0.9,0-1.7,0.2-2.5
	c0.1-0.5,0.3-0.8,0.5-1.2c0.3-0.4,0.6-0.8,0.8-1.3c0.1-0.7,0.1-1.1,0-1.3h-0.3c-0.3-0.7-0.8-1.4-1.5-2.2c-0.4-0.6-0.7-0.8-1.1-0.8
	l-0.4,0.3c0-0.3,0.1-0.7,0.2-1.1c0.2-0.9,0.5-1.5,0.8-2.2c0.3-0.7,0.8-1.2,1.5-1.7c0.4-0.3,0.7-0.4,1-0.5l1.3-0.1
	c1-0.1,1.6-0.2,2.2-0.4c0.7-0.3,1.2-0.8,1.6-1.4s0.7-1.2,0.7-1.9c0-0.5-0.2-1-0.5-1.8c-0.3-0.9-0.5-1.7-0.5-2.2
	c-0.2-0.9-0.7-1.8-1.6-2.8c-0.9-0.9-2.9-2.7-5.9-5.4c-2.5-2.3-3.2-3.3-2-3.3c0.6,0,1.4,0.3,2.5,0.8l2.7-2.3c0.5-0.4,0.7-0.9,0.4-1.5
	c-0.2-1-0.4-1.5-0.4-1.7c0-0.8,0.2-1.3,0.6-1.8c0.2-0.2,0.9-0.7,1.9-1.5c0.9-0.7,1.5-1.2,1.8-1.5c0.4-0.4,0.5-0.9,0.7-1.5
	c0.1-0.5,0.2-0.9,0.1-1.1l-0.1-0.1l-5-1c-3.1-0.7-6.3-1.5-10-2.5c-2.5-0.8-3.7-0.9-3.8-0.5c0,0,0.1,0.2,0.2,0.5
	c0,0.2-0.1,0.4-0.4,0.5c-0.4,0-0.7,0.2-1.1,0.4c-0.3,0.3-1.1,0.6-2.1,0.8c-1.3,0.3-2,0.3-2,0c0.1-0.5,0.1-1,0-1.5
	c-0.3-0.5-0.5-1-0.9-1.2l-0.4-0.3c-0.8-0.2-2-0.8-3.5-2c-0.8-0.7-1.2-1.2-0.8-1.7c0.5-0.8,0.8-1.3,0.8-1.8c0-0.8-0.2-1.3-0.5-1.6
	l-1.2-1.1c-0.6-0.7-1.3-1-1.5-0.6c-0.4,0.7-1,1.1-1.5,1.3c-0.8,0.2-1.6,0.6-2.5,1.3c-0.9,0.7-1.5,1.1-1.8,1.2
	c-0.6,0.2-1.2,0.7-2.1,1.5l-1.1,1.3c-0.9,2-1.5,3.4-2,4.2c-0.4,0.5-0.9,1.3-1.7,2.1l-1.1,1.2c-0.3,0.2-0.8,0.5-1.5,0.7
	c-1.3,0.4-2.8,0.6-4.5,0.5c-1.6,0-2.4-0.1-2.6-0.2c-0.4,0-1.1-0.1-2.4-0.3c-1.6-0.2-2.1,0.1-1.6,1c0.4,0.3,0.8,0.8,1.4,1.3l-1,2.7
	v3.3c0,0.5,1.2,1.3,3.7,2.4c5.5,2.3,9.4,3.9,11.8,5.1c4.2,2,4.6,3,1.1,3c-4.6-0.3-7.3-0.3-7.9,0c-1.2,2.3-2.1,3.7-4.5,3.7
	c-1.5,0-2.2,0.4-2.2,1.3c0,0.4,0.1,0.8,0.5,1.2c-0.9,1.3-1.7,2.1-2.5,2.3c-0.9,0.1-1.9,0.2-3,0.2c-0.8,0-1.6,0.3-2.4,1l-1.1,1v4.8
	c0,0.8-0.3,2-0.9,3.3c-0.5,1.4-1,2.5-1.6,3.4c-0.5,0.8-1,1.2-1.3,1.2c-0.4,0.1-0.8,0.1-1.2,0.3c-0.5,0.1-1,0.3-1.6,0.5
	c-0.7,0.2-1.3,0.3-1.7,0.5c-0.4,0.1-1.2,0.3-2.6,0.4c-1.7,0.1-3.3,0.4-4.6,0.6c-2,0.3-3,0.5-3.4,0.4c-0.1-0.1-2.1-0.6-6-1.7
	c-0.1,0.8-0.4,1.9-0.6,3.1c-0.6,2.2-0.5,4,0,5.4c0.3,0.6,0.6,1.1,1,1.3l0.7,3.8l-3.2,6.5l1,1.7c-0.4,0.3-1.2,0.5-2.5,0.5
	c-0.9,0-1.4,0.3-1.4,0.8c0,0.2,0,0.5,0.1,0.7l0.3,1.4c0.1,1.1,0.2,1.8,0.2,2.4c0,0.8-0.1,1.7-0.2,2.7l-1.5,1.8
	c-0.5,0.1-1.2,0.2-2,0.2c-0.6,0-1.5-0.3-3-0.9l-2-0.8l-0.1,2c-0.3,1.7-0.9,3.5-1.9,5.2c-1,1.7-1.1,3.2-0.2,4.5
	c0.4,0.7,1,1.4,1.7,2.3c0,1.8,1,4.4,3.2,7.7c1.1,1.8,1.6,3.4,1.3,5c-0.2,0.8-0.5,1.3-0.8,1.8l-0.4,1.5c-0.5,1-1.2,1.4-2.1,1.2
	c-0.8-0.2-1.2-0.4-1.1-0.6c0.3-0.9,0.4-1.8,0.1-2.9c-0.3-1.5-0.7-2-1.4-1.7l-0.8,1l1.2,4.2l3,2.8l2.5,3.2l0.8,2.3l-0.5,2.7l-2.3,2
	c-0.6,0.5-0.8,1.2-0.8,2c0.1,2.5,0,4.8-0.2,7c-0.3,3.1-0.3,5.3,0.1,6.5l0.4,1.5c-0.2,0.8-0.5,2-1,3.5c-0.2,0.7-0.1,1,0.3,1.1
	c0.2,0.1,0.8,0.2,1.7,0.4l5.3,1.8c1.1,0.4,1.5,0.8,1.2,1.4c-0.1,0.3-0.5,0.8-1,1.6c-0.1,0.8-0.1,1.3,0,1.5l0.8,2.2l1,1.5l2.2,1.3
	c0.1,0,1-0.5,2.5-1.3c0.9-0.5,1.6-0.7,1.8-0.5c0.2,0.1,0.3,0.3,0.2,0.5l0.4,1.3c0.4,1.2,0.4,2.5,0.4,4c-0.2,2.3-0.7,3.8-1.3,4.5
	l0.4,0.3c0.5,0.2,0.9,0.2,1.6,0.2c1-0.2,2.9,0.3,5.8,1.7l4-3l-0.3-0.2l0.3,0.2l2.1,1.2c2,1,3.4,1.6,4.6,2.1c1.2,0.4,1.9,1.3,2.3,2.7
	c0.1,0.7,0.2,1.3,0.2,2l-0.5,3.9c0.3,0.1,1.4,0.9,3.5,2.6l1.7,0.4c1.5,0.8,3.6,1.6,6.3,2.6c2.7,1,3.9,1.9,3.7,2.8
	c-0.2,0.5-0.5,0.9-1.2,1.2l-0.5,6.3l1.8,2.7l5.7,1.8l1.3,1.5l1.5,3.7l2.6,0.9c2,0.8,3.6,1.5,4.9,2.4c1.7,1.1,2.6,1.6,2.7,1.7
	c4.8,0,7.1-0.7,6.3-3.2l2.5,1l4.7,1.2l2.5-0.5v-4.2c0-1,0.1-1.6,0.3-2l0.2-0.3l1.8-0.5h5.5l3.7,1.8c1.8,0.7,4,1.5,6.8,2.5
	c2.6,0.9,4.1,2.6,4.4,5c0.1,1.3,0,2.4-0.4,3.4l-4.5,1.5l2,4l0.5,3.8l1.2,1.2l1.5,0.8h3.8l4.2-0.8c0.8-0.1,1.7-0.1,2.5,0l-0.9,6.3
	l0.7,1.7l-0.3,4.5c0,0.9,0.4,2,1.3,3.5l0.7,4.5l2.3,2.5l3,1l0.5,1.8l-1.5,2.5l-1.8,0.5l2.5,2l1.5,0.7h3.1c1.3-0.1,2.4-0.1,3.2-0.2
	c1.1-0.2,2-0.6,2.5-1.3l2.2-3l2.3-0.7l2.8-1.8c0.1-0.1,0.1-0.1,0.2-0.4C339.3,467.8,339.4,466.6,339.4,464.9z"/>
<path id="swietokrzyskie" class="st0" d="M567.2,480.6c-0.2-0.2-1.4-0.9-3.8-2.1c-1.5-0.9-2.3-1.1-2.2-0.8c0.1,0.2,0.4,0.5,0.7,0.8
	l-1.3,1l-1.5,0.5h-3.7l-1.5,2.5c-0.3,0.6-0.6,1-0.8,1.2c-0.5,0.3-1,0.6-1.5,1c-0.5,0.5-0.8,0.6-1,0.5c-0.2-0.5-0.5-0.8-1-1
	c-0.5-0.1-1-0.4-1.5-0.6c-0.7-0.4-1.2-0.6-1.7-0.9c-0.8-0.2-1.2-0.6-1.4-1.1l-0.1-0.6l-1.8-1.5l-6.2,0.2l-4.8-0.2
	c-0.5,0-1.1-0.3-2-0.8c-0.5-0.2-0.7-1-0.5-2c0.2-1.2,0.3-2,0.3-2.5s-0.2-0.8-0.6-0.9l-0.7-0.1l-1.5-1.2l1.3-1.5l-1-3l-1.3-0.8v1.6
	c0,1.1-0.1,1.9-0.2,2.4c-0.1,0.9-0.7,1.5-1.5,2L522,473c-3.2-3.4-7.1-3.6-11.6-0.5l-1.3-1.8l-1.7,0.5l-2.5-0.2v-2
	c-0.1-0.5-0.9-2.4-2.3-5.5c-0.8-1.9-1.7-2.5-2.5-1.8l-1.2,1.8l-2.8,1l-3.2-1c-0.8-3.5-1.4-5.8-1.8-6.8c-0.2-0.6-0.7-1.1-1.5-1.6
	l-5.7-0.5c-0.1,0.2-0.3,0.4-0.5,0.6c-0.5,0.6-1.2,1-1.8,1.3l-1,0.2c-0.3,0-0.6,0.1-0.7,0.4c-0.4,0.4,0,1.1,1,2.1
	c0.8,0.9,1.6,1.4,2.4,1.9c0.3,0.1,0.5,0.5,0.3,0.9c-0.1,0.8-0.8,1.5-2.2,2c-0.5-0.5-1.4-0.8-2.8-1l-5.2-0.4c1,1.7,2,3,2.9,3.6
	c0.8,0.6,0.1,1-2.2,1l-8.2,0.3l-3.5,2l-2.8-0.3l-1.2,0.5l-0.8,3.3l-0.2,2.7l-2.8,3.3l-0.2,0.9c-0.1,0.7,0.2,1,1,1.1
	c1.2,0.2,2.5,0.2,4,0.2l0.7-0.7c0.4-0.3,0.7,0.1,0.8,1.2c0.1,1,0.4,1.9,0.9,3c0.2,0.9-0.1,2-0.9,3.3l-2.8,4.5
	c0.5,0.5-0.3-0.3-2.5-2.3c-1.3-1.3-2.6-2.6-4-3.7c-0.8-0.8-1.8-1.4-3-2.2l-1.5-0.8l-0.2,0.7c-0.1,0.5-0.3,1.2-0.3,2v4
	c0,0.5,0.2,1.1,0.5,2c0,0.8-0.4,1.8-1.5,2.8c-0.8,0.8-1,1.7-0.5,2.6c0.4,0.9,0.3,1.6-0.5,2.1c-1.5,1.2-3.1,2.5-5,3.8l1,0.7l0,0
	c0.6,0.3,1.3,0.6,1.8,0.8c1.2,0.3,2,0.8,2.5,1.5l-0.3,2c-0.3,0-0.7,0-1,0.1c-0.7,0.2-1.1,0.6-1.2,1.4c-0.2,1.2-0.3,2.2-0.3,3
	l-3.5,1.5l-1.2,0.2v2.8l1,2l6.5,0.7l2.4-0.6c1.4-0.3,1.7-0.1,0.8,0.6c-1.3,1.2-2.2,2.1-2.7,2.8l0.2,0.7c0.3,0.5,0.8,0.9,1.5,1
	c1.2,0.4,2.5,0.5,4,0.5l0.7,1c0.3,0.6,0.1,1.1-0.4,1.3c-0.5,0.2-1.3,0.7-2.2,1.3c-0.5,0.4-1,0.7-1.3,0.9l-0.6,0.3
	c-0.4,0.2-0.9,0.7-1.2,1.5c-0.5,1.1-1.5,2.8-3,5c-0.3-0.2-0.7-0.3-1-0.3c-0.7-0.2-0.7,0-0.2,0.5c0.9,0.9,2,1.6,3.5,2.3l1.2,0.4
	c0.8,0.3,1.5,0.5,2,0.6c0.9,0.2,1.5,0.3,2,0.5c0.2-0.3,0.6-0.7,1.2-1c1.1-0.7,2.6-0.9,4.6-0.8c2,0.3,3.5,0.6,4.5,1.1
	c0.5,0.3,0.9,0.5,1,0.7l0.4,0.5c0.4,0.3,1,0.5,1.8,0.5c0.6,0,1.3-0.2,2.1-0.4c0.7-0.3,1.4-0.3,2.2-0.1c0.7,0.2,1.7,0.2,3,0.3
	c0.8,0.1,1.5,0.5,1.7,1.2c0.3,0.5,0.5,1.1,1,1.7c0.3,0.6,0.7,1.1,0.8,1.8c0.2,0.7,0.3,1.1,0.5,1.2c0.4,0.8,0.7,1.1,0.7,1.3
	c0.3,0.4,0.7,1.1,1.3,2c0.5,0.6,0.8,1.2,1,1.7c0.1,0.3,0.6,0.9,1.5,1.8c0.5,0.4,0.3,0.8-0.5,1.2c-0.6,0.3-1.4,0.3-2.3-0.1
	c-0.5-0.3-0.7,0.2-1,1.4c-0.2,1.7-0.3,2.7-0.3,2.9c0.1,0.2,0.5,0.4,1.3,0.6c1.2,0.2,2,0.2,2.3,0.2l-0.5,2.8
	c-0.1,0.9-0.2,1.6-0.1,1.9c0.1,0.7,0.7,1,1.6,1.1c1.4,0.2,2.4,0.2,3.2,0.2l-0.5,0.4c-0.5,0.3-1,0.9-1.5,1.6
	c-0.5,1.1-0.8,1.8-0.8,2.2c-0.1,0.6,0.3,1.2,1.1,1.6c0.6,0.4,1.2,0.7,2,1.2c0.5,0.2,1.1,0.2,1.7-0.2l8.3-4.5h5l0.7-0.3
	c0.6-0.1,1.3-0.2,2-0.2c2.5,0,4.4-0.6,5.5-1.8l3-3c0.3-0.2,0.5-0.5,0.8-0.7c0.7-0.5,1.2-0.8,1.7-0.8c0.4,0,1.2,0,2.5-0.1
	c1.2,0,2.2-0.1,3-0.1c1.7,0,3-0.1,4-0.2c1.5-0.1,2.8-0.5,3.8-1.1c0.3-0.1,1.4-0.7,3.2-1.9c1.1-0.7,2-1.1,2.5-1.3
	c0.3,0,1-0.4,2.3-0.9c1-0.5,1.9-0.8,2.5-0.9l2.3-0.3c0.2-0.6,0.4-1.2,0.7-1.8c0.2-0.4,0.4-0.6,0.5-0.9l2-3l1.2-0.3
	c0.9-0.3,1.8-0.7,2.8-1.2c0.7-0.3,1.7-0.6,2.7-1c1-0.4,2-1.2,3.3-2.5c2.3-2.3,4.3-4.1,6-5.5c0.4-0.2,1.3-0.7,2.8-1.5
	c1.4-0.7,2.4-1.2,2.9-1.7c0.8-0.7,1.3-1.1,1.6-1.4c0.3-0.4,0.7-0.9,1.2-1.6c0.2-0.3,0.7-1.3,1.7-3c0.7-1.2,0.8-2.4,0.3-3.8l1.2-1.5
	l6.5-1.7l2.3-2l1-14.4c0.3-1.1,0.4-2,0.2-2.6c0-0.7-0.5-1.3-1.2-1.8c-0.9-0.6-1.3-1.1-1.5-1.5c-0.5-1.1-0.9-2.8-1.3-5
	c0-0.6-0.2-2.5-0.3-5.5l-0.2-4.5c-0.9-1.6-1.6-2.9-2-3.9c-1.9,0-3,0-3.7-0.1C568.8,481.2,568,480.9,567.2,480.6z"/>
<path id="warminsko-mazurskie" class="st0" d="M414.6,153.6l1.3-6.2l-6,0.7c0,0-0.7-0.6-1.4-1.1c0.2,2.4-0.1-0.2,0.1,0.2
	c0.5,1.2,0.9,2,1,2.3c0.5,1.4,1.2,4.1,2,8.5c-0.4,0.2-0.9,0.3-1.4,0.5c-1.1,0.5-1.8,0.9-2.1,1.5c-0.3,0.7-0.5,1.1-0.6,1.2
	c-0.1,0.1-0.1,0.5-0.1,1.1c0,0.3,0,0.7,0.2,1.1c0,0.5,0,1,0,1.6v3.3c0,1.3,0.8,3.1,2.3,5.2l0.5,1.3l2.7,1.2l1.5,1l0.3-0.4
	c0.1,0,0.1,0.7,0,1.9c-0.1,2-0.1,3.6,0,4.8l1,0.5c0.9,0.4,1.6,0.5,2.2,0.5l7-1.3l1-0.8c-1.7,3.8-2.7,5.8-2.7,6
	c-0.2,0.6-0.3,1.6-0.3,3.1c0,2.1,0.1,3.7,0.3,4.7v2l-1.3,0.8l-6.2-2.3c-0.1-0.7-0.4-1.2-0.7-1.7c-0.6-0.6-1.1-0.5-1.8,0.7l-1.7,4.1
	c0.1,0.9,0.1,1.6,0.2,2.2c0.2,0.8,0,2-0.7,3.4c0-0.2,0-0.2-0.1-0.3c-0.2-0.1-0.9,0.4-2,1.4l-3.5,4l1,0.9c0.3,0.6-1.2,3-4.5,7.1
	c2.2,2.8,3.5,4.5,3.7,4.9c0.4,0.7,0.8,1.6,0.8,2.8c0.1,0.5,0.2,1.3,0.2,2.8c0.1,0.8,0.1,1.5,0.3,2.2c0.4,1.2,0.7,2.6,1,4.3
	c0.2,0.8,0.3,1.2,0.3,1.3c0.2,0.4,0.6,0.7,1.2,1.2c0.8,0.5,1.6,0.7,2.5,0.7c1-0.1,1.5-0.4,1.8-1c0.1-1.2,0.2-2,0.2-2.4
	c0-0.6,0.5-0.3,1.3,1.2c0.7,1.3,1.5,2.5,2.2,3.3c0.8,0.9,1.2,1.4,1.3,1.7c0.5,0.8,1.9,1.3,4.2,1.7l1.1-0.5c1-0.1,2,0.1,3.2,0.8
	c0.7,0.3,1.8,0.7,3.7,1.2c1,0.2,1.8,0.8,2,1.5c0.3,0.6,0.7,1.3,1.3,2.2c0.5,0.8,0.8,1.4,1,2.1l1,3.2c-0.3-0.2-0.5-0.2-0.8-0.2
	c-0.6,0.2-1,0.8-1.2,2c-0.2,1.1,0,2.2,0.5,3.3c0.3,0.6,0.7,1,1,1.4l1.7,0.5l1.3,4l0.1,0.8c0.8-0.3,1.6-0.5,2.4-0.7
	c0.2,0,0.4-0.3,0.7-0.7c0.7-0.9,1-1.9,1-3.3l1.5-3.2c0.4-0.8,0.9-0.8,1.5,0c0.5,0.7,1,1.9,1.5,3.8c0.5,1.4,0.8,2.3,1,2.4
	c0,0,0,0,0-0.2l2,0.1c1.8,0.1,3.9,0.1,6.3,0.1c2.5,0,4,0.1,4.5,0.2c0.5,0,0.8,0.2,1.2,0.4c0.3,0,1.5,0.3,3.8,1.1
	c2,0.5,3.2,0.9,3.7,0.9c0.1,0,1.1,0,3.1,0.1c1.6,0.2,2.7,0.2,3.4,0.1c0.9-0.1,1.5-0.6,2-1.4c0.5-0.8,0.7-1.7,0.5-2.6
	c0-0.4-0.2-1.1-0.5-2.1c-0.3-0.8-0.5-1.5-0.5-2.1c0-0.7,0.2-1.3,0.5-1.7c0.6-1.2,1-1.8,1-1.9c0.5-0.8,1.2-1.2,2-1.2
	c0.5,0,1.4,0.1,2.5,0.2c0.5,0,1,0.2,1.5,0.4c0.3,0.2,1,0.3,1.8,0.2c0.7-0.1,1.8-0.2,3.2-0.3c1.2-0.1,2.3-0.4,3.3-1
	c1-0.4,1.5-1.4,1.7-2.9c0.3-1.6,0.5-2.5,0.8-2.8c0.5-0.6,1-0.8,1.2-0.7c0.2,0.1,0.3,0.3,0.3,0.4h3.7l1.1-0.4
	c0.9-0.3,2.1-0.9,3.4-1.6c1.4-0.7,1.8-1.3,1.4-1.6l-1.1-0.1l0.7-0.7c0.8-0.6,1.7-1.2,2.8-1.9c1.2-0.6,1.9-0.8,2.3-0.6
	c0.2,0,0.2,0.2,0.2,0.4l1.2,1.2l3.8-0.2c0.9-0.1,1.5-0.2,1.9-0.4c0.2-0.1,0.6-0.3,1.1-0.6c0.5-0.1,1.2-0.5,2.5-0.9
	c1.2-0.6,2.3-1.2,3.5-2.1c1-0.8,1.7-1.4,2.2-1.8c0.4-0.6,1-1,1.5-1.4c0.8-0.6,1.1-0.7,1.1-0.2c-0.1,1.2-0.1,2-0.1,2.4
	c0.3,0.9,0.8,1,1.8,0.6c0.5-0.3,1.3-0.7,2.5-1.4c1-0.3,2.1-0.3,3.2-0.2l2.8-2.2l4-2.3c0.7-0.4,1.5-0.5,2.5-0.2
	c0.6,0.1,1.9,0.6,3.7,1.5c0.6,0.1,1.2,0.4,1.5,0.9c0.2-0.1,0.4-0.3,0.5-0.3c0.6-0.3,1.4-0.6,2.5-0.8c0.5-0.2,1.3-0.4,2.3-0.5
	c0.8-0.2,2-0.2,3.5,0l4.5,0.5l2.7-0.7l1.3-1.8l1.7-4.5h3.5l1.8-0.3c1.2-0.2,2.1-0.5,2.7-0.7c0.5-0.2,1.5-0.4,2.8-0.7
	c1.2-0.3,2-0.8,2.5-1.3c0.4-0.4,0.9-0.7,1.5-1c0.7-0.4,1.2-0.8,1.7-1.5c1-1.2,3.5-4,7.3-8.5c0.8-0.9,1.5-1.4,2-1.5
	c0.5,0,1.7-0.1,3.7-0.2c1.8-0.3,2.6-0.5,2.4-0.7l-0.9-0.1c0-0.5-0.1-1.2-0.5-2.2c-0.2-0.7-0.2-1.1,0-1.3c0-0.2,0.2-0.2,0.3-0.2
	l2.2-1l1.4-0.4c1-0.4,1.7-0.7,2.4-1.1c0.7-0.5,1.6-1.5,2.6-2.8c1-1.3,1.6-2.3,1.9-3c0.2-0.5,0.4-1,0.5-1.3v-0.4l2.5-0.3
	c0.5-1,0.7-1.9,0.7-2.7c0-0.5,0.1-0.8,0.3-1c0.2-0.5,0.4-0.8,0.5-1c0.1-0.5,0.5-1,0.9-1.6c0.4-0.7,0.8-1.4,1.1-1.9
	c0.3-0.7,0.5-1.2,0.5-1.5c0-0.8,0-1.3,0-1.5c0.3-2.2,0.3-4.2,0-6c0-0.5-0.5-1.4-1.3-2.5c-0.9-1.4-1.5-2.5-2-3.5
	c-0.5-1.2-1.1-2-1.9-2.4c-1.1-0.5-1.8-0.9-2.1-1.1c-0.3-0.4-1.1-1-2.4-1.7c-1-0.6-1.7-1.2-2.1-1.8c-0.4-0.8-0.5-1.3-0.2-1.5
	c0.3-0.3,0.6-0.6,0.7-1c0.3-0.6,0.5-1.4,0.8-2.5l0.2-1.5l-1.2-1.5c-0.4-0.2-0.7-0.4-1.1-0.8c-0.9-0.6-1.6-1.5-2.2-2.5
	c-0.4-1-0.7-1.7-0.9-2.3c-0.2-0.8-0.4-1.5-0.6-1.9c-0.3-0.9-0.3-1.5-0.1-1.9c0.2-0.3,0.6-0.8,1.4-1.6c0.5-0.8,1.5-1.3,2.8-1.5
	c0.8-0.2,1.9-0.4,3.4-0.5c3-0.8,5.6-1.7,7.8-2.8c1.2-0.6,1.8-1.6,1.7-3.1c0-0.6-0.1-1.3-0.5-1.9c0-1.2-0.3-2.1-0.9-2.7
	c-0.5,0.3-1,0.5-1.6,0.8c-2.3,1-3.9,1.8-4.6,2c-0.6,0.2-1.3,0.3-2.1,0.5c-1,0.2-4.6,0.3-10.8,0.3c-0.2,0-6.7,0.8-19.4,2.5
	c-13.4,1.7-23.2,2.8-29.3,3.2c-5.8,0.3-14.4,0.1-25.5-0.9c-13.3-1.2-21.8-1.8-25.3-1.8c-6.5-0.1-13-0.5-19.6-1
	c-3.3-0.2-8.4-0.8-15.4-1.5c-10.2-1.1-16.3-2.3-18.5-3.3c-1.5-0.7-2.4-1.2-2.8-1.3c-0.8-0.3-1.7-0.4-2.9-0.4h-3.4
	c-0.5,0.7-1,1.4-1.5,2.3c-0.4,0.7-0.8,1.3-1.2,1.8c-0.6,0.5-0.9,1-1.3,1.4c-0.4,0.7-0.6,1.1-0.9,1.3c0,0,0,0,0,0
	c-0.2,0.3-0.4,0.5-0.5,0.7c-0.3,0.2-1,0.4-2.2,0.5c-1.1,0-2.3,0.4-3.3,1c-1.3,0.8-2.4,1.5-3.2,2c-1.5,0.8-2.3,1.3-2.3,1.4
	c-0.1,0.1-0.2,0.2-0.3,0.3c-0.2,0.2-0.4,0.5-0.6,0.8c-0.1,0.3-1.1,1.8-3,4.3c-0.5,0.7-1.1,1.5-1.9,2.3l-0.1,0.1
	c-0.2,0.2-0.3,0.4-0.5,0.5L414.6,153.6z"/>
<path id="pomorskie" class="st0" d="M358.4,92.4l-5.9-2.5c-6.1,0.3-10.3,0.5-12.8,0.5c-2,0-4.3,0.2-6.9,0.6
	c-2.9,0.6-7.7,1.7-14.4,3.4c-5.7,1.4-10.8,2.6-15.1,3.5c-3.9,0.9-6.8,1.5-8.6,2c-2.4,0.5-5.4,1.9-9,4.1c-1,0.6-4.3,2.8-9.5,6.4
	c-3.7,2.5-7.1,4.3-10.4,5.5c-2.1,0.7-4.3,1.3-6.7,1.7c0.6,2,1.2,4,1.3,4.5l0.5,1.4c2.2,0.9,3.4,1.7,3.8,2.5c0.3,0.9,0.5,3,0.5,6.5
	c0.1-0.3,0,0.1-0.3,1.3c-0.2,0.8-0.1,1.7,0.3,2.8c0.1,0.4,0.4,0.9,0.7,1.4c-0.3-0.5-0.6-1-0.7-1.4c-0.1-0.2-0.3-0.3-0.4-0.4
	c-0.6-0.8-1-0.2-1.1,2.1l1,5.7c-1.2,4.3-2.4,5.8-5.5,5.5c-1.4,0.3-2.3,0.5-2.9,0.7c-0.9,0.2-1.2,0.6-0.9,1.3c0.3,0.7,0.7,1.3,1.1,2
	c0.7,1,1.2,1.9,1.7,2.8c0.3,0.6,0.9,1.2,1.6,1.7c0.4,0.3,0.6,1.1,0.9,2.5c0.1,0.9,0.5,3.1,1,6.6c0.5,2.7,0.7,4.3,0.7,4.9
	c0,0.5,0,1.2,0,2c0,0.8-0.2,1.5-0.5,2.3c-0.1,0.3-0.6,0.9-1.1,1.7c-0.2,0.2-0.1,0.4,0.4,0.5c0.8,0.1,2.1-0.2,4-1l0.7-0.6
	c0.5-0.3,0.8,0,0.8,0.9c0,0.6-0.1,1.4-0.2,2.2c0.1,0.5,0.4,1.1,1.2,1.8c1.1,1,2.1,1.5,2.7,1.7l1.2,2.3c0.5,1.6,0,2.7-1.4,3.2
	c-1.1,0.4-2.4,0.6-3.6,0.8c-0.7,0-1.2,0.2-1.4,0.7c-0.9,0.7-1.4,1.1-1.6,1.4c-0.4,0.6,0.1,1.3,1.6,2.4c0.7,0.5,2.2,1,4.5,1.5
	c1,0.1,0.9,0.8-0.3,2.2c-1.5,1.6-2.4,2.6-2.6,3c-0.4,0.3-0.6,0.8-0.6,1.5c-0.1,0.6-0.1,1.3,0,1.9c0.3,1.4,0.5,2.1,0.5,2.1
	c0,0.5,0.2,1.3,0.5,2.3c0.3,0.8,0.5,1.5,0.5,2c0,0.6-0.4,1.6-1,3l1.2,1.1c0.3,0.3,0.5,0.8,0.5,1.6c0,0.5-0.3,1-0.8,1.8
	c-0.4,0.5,0,1,0.8,1.7c1.5,1.2,2.7,1.8,3.5,2l0.4,0.3c0.4,0.2,0.6,0.7,0.9,1.2c0.1,0.5,0.1,1,0,1.5c0,0.3,0.7,0.3,2,0
	c1-0.2,1.8-0.5,2.1-0.8c0.4-0.2,0.7-0.4,1.1-0.4c0.3-0.1,0.4-0.3,0.4-0.5c-0.1-0.3-0.2-0.5-0.2-0.5c0.1-0.4,1.3-0.3,3.8,0.5
	c3.7,1,6.9,1.8,10,2.5l5,1c-0.1-1,0-2.1,0.2-3.3c0.2-2.4,0.7-4.2,1.6-5.5c0.6-1,1.2-2.2,1.8-3.4c0.4-0.7,0.9-0.9,1.7-0.6
	c0.5,0.3,1.1,0.5,1.5,0.5c0.3,0.1,0.5,0.7,0.7,1.5c0.3,1.5,0.6,2.3,0.8,2.6c0.3,0.8,0.8,1.2,1.5,1.2h2.7l2.5,1c1.5,0,2.5-0.5,3-1.3
	c0.5-0.9,0.8-1.3,1-1.5c0.4-0.3,1-0.5,1.8-0.5c0.6,0,1.3,0,2.1,0.2c0.6,0.1,1-0.2,1.1-0.7l0.5-4l-3-1.7v-2.5h5.5l1.5-0.5l-0.5-3.8
	c-0.2-0.2-0.2-0.5-0.1-0.7c0.1-0.5,0.6-0.8,1.6-0.8c0.3,0,1.2-0.2,2.4-0.7c0.8-0.2,1.5,0,2.1,0.7c1.2,1.2,2,1.8,2.5,2l0.9,1.5
	c0.8,0.6,1.3,0.2,1.6-1.2c0.4-1.6,1.3-2.7,2.8-3.2c1-0.4,2.2-0.5,3.5-0.3l3-0.3c1.1,0,1.9,0.3,2.2,1c0.2,0.5,0.6,1,1.2,1.7
	c0.3,0.4,0.4,0.8,0.3,1.3c0,0.3-0.3,0.7-0.8,1c-0.2,0.3,0,0.5,0.5,0.8c0.8,0.3,1.5,0.5,2.2,0.6c0.5,0.1,1.5,0.1,2.8,0.1h5.5l1-0.8
	c0.8-0.5,1.6-0.7,2.5-0.4c0.8,0.1,1.9,0.3,3.3,0.5c1,0.3,1.5,0.7,1.5,1.2v2h2c1.5,0,2.7-0.2,3.5-0.5c0.5-0.2,1.3-0.7,2.3-1.3
	c0.7-0.4,1.4-0.7,1.9-0.7s1.3-0.2,2.2-0.7c0.6,0,1,0.7,1.1,2.2c0.2,2.5,0.2,4.3,0.2,5.3c-0.8-0.1-1.5,0-2,0
	c-0.9,0.2-0.2,0.5,1.8,1.2c2.2,0.7,4,1.2,5.1,1.3c0.8,0.2,1.6,0.2,2.6,0.2c0.6,0,1.5,0,2.5-0.1c1.2-0.1,2.5,0,4,0.1
	c0.8,0,1.9-0.5,3.2-1.7c0.7-0.6,1.8,0,3.2,1.7c0.1,0,0.1,0.1,0.1,0.1l0.3,0.4c0,0.1,0.2,0.2,0.2,0.3c3.3-4.1,4.8-6.5,4.5-7.1l-1-0.9
	l3.5-4c1.1-1,1.8-1.5,2-1.4c0.1,0.1,0.1,0.1,0.1,0.3c0.7-1.4,0.9-2.6,0.7-3.4c-0.1-0.6-0.1-1.3-0.2-2.2l1.7-4.1
	c0.7-1.2,1.2-1.3,1.8-0.7c0.3,0.5,0.6,1,0.7,1.7l6.2,2.3l1.3-0.8v-2c-0.2-1-0.3-2.6-0.3-4.7c0-1.5,0.1-2.5,0.3-3.1
	c0-0.2,1-2.2,2.7-6l-1,0.8l-7,1.3c-0.6,0-1.3-0.1-2.2-0.5l-1-0.5c-0.1-1.2-0.1-2.8,0-4.8c0.1-1.2,0.1-1.9,0-1.9l-0.3,0.4l-1.5-1
	l-2.7-1.2l-0.5-1.3c-1.5-2.1-2.3-3.9-2.3-5.2V165c0-0.6,0-1.1,0-1.6c-0.2-0.4-0.2-0.8-0.2-1.1c0-0.6,0-1,0.1-1.1
	c0.1-0.1,0.3-0.5,0.6-1.2c0.3-0.6,1-1,2.1-1.5c0.5-0.2,1-0.3,1.4-0.5c-0.8-4.4-1.5-7.1-2-8.5c-0.1-0.3-0.5-1.1-1-2.3
	c-0.1-0.2-1.6-1.8-0.4-2.3c14.2-6.5,23.1-14,22.2-14.8c-0.7-0.6-7.4,6.5-22.8,13.2c-0.2,0.1-3.5-0.7-3.5-0.7
	c-1.7-1.2-0.4-1.5-4.1-1.6c-3-0.1-7.2,0.1-12.5,0.5c-2.5,0.2-4.1-0.2-4.8-1c-0.8-1.1-1.7-1.8-2.7-2.3c-0.8-0.5-1.8-0.8-3-0.9
	c-1.1,0.1-2,0.2-2.3,0.2c-0.5,0-1.1-0.7-1.7-2c-1-2.2-2.4-4.3-4.3-6.5c-0.3-5.3-0.7-9-1.2-11c-0.3-1.2-0.5-2-0.7-2.3
	c-0.1-0.3-0.5-1-1.1-2.2c-0.4-1-1-2-1.8-3.1c-0.8-1-1.2-1.7-1.4-2.1c-0.3-1-0.8-3-1.5-6c-0.3,0.1-0.8,0.1-1.1,0
	c-0.7-0.2-1.2-0.9-1.2-2c0-1.9,0.2-3.4,0.3-4.5l-0.3-0.7c0.1,0,0.2,0.1,0.5,0.2c0,0,0,0,0,0c0,0,0,0,0,0c0.8,0.4,2.3,1.5,4.5,3.2
	c0.7,0.5,1.3,1,1.9,1.4c2,1,3.7,2.1,4.9,3.1c0.5,0.4,1,0.8,1.5,1.3c0.8,0.5,1.6,1.1,2.2,1.5c1.1,0.7,2,1.4,2.8,1.9
	c1.5,0.9,2.4,1.4,3,1.6c0.6,0.3,1.1,0.8,1.3,1.5c0.2,0.7,0.8,1.4,1.7,2.3c0.5,0.3,1,0.7,1.3,1c0.2,0,0.4,0,0.5,0
	c0.1-0.9-0.5-2.5-1.9-5L358.4,92.4z"/>
<path id="mazowieckie" class="st0" d="M657.6,353.3l-2.5-1.4c-0.1-0.9-0.4-1.6-1-2.4c-1-1.7-2.6-2.5-4.7-2.3c-2,0.1-3.6-0.2-4.8-0.9
	l-1-0.9c0.5-0.6,0.8-1.1,0.8-1.6c0-1.2-1.2-1.8-3.5-1.9c-3.7-0.1-7.6-0.3-11.8-0.3c-0.5,0-1.5-0.1-2.8-0.2l-1.9-0.2l-8-2.8
	c-0.9-2.1-1.9-4.4-3-6.8l-5-9.4c0-0.4-0.2-0.9-0.4-1.4c-0.3-1-0.9-1.7-1.6-2.2c-0.9-0.2-1.4-0.3-1.5-0.5c-0.2-0.1-0.3-0.8-0.3-2.2
	c0-1.3,0-2.6-0.1-4c0-1.4-0.1-2.3-0.1-2.5l0.5-5.5l1-3.3l-1.8-1.7l-3.5,1.3l-2.5,1.4l-2-1.7c-0.4-0.6-0.9-1.3-1.2-2.1
	c-0.8-1.6-1-3-0.8-4.2c0.4-1.3,0.5-2.3,0.5-2.8c-0.2-0.6-0.5-0.9-1.2-0.9c-0.5,0-1.3-0.1-2.3-0.3l-1.5-0.2c-0.8,0-1.6,0.4-2.5,1
	c-0.5,0.4-1.2,1-2.3,1.6l-1.4,0.9l-3.5-0.3l-2.8-2.2l-0.2-2.5l1.5-2.3l-2.5-4.4l-3.8-1.8l-0.7-3.5v-0.2c0.2-0.2,0.6-0.4,1.2-0.5
	c1-0.4,1.5-1.2,1.5-2.6l-0.2-2.2l-2.5-0.5l-2,2.5l-1.8-2.5l-1-2.5l-2.2-1.2h-2l-2.5,0.4l-1.5-1.7c0-0.6-0.2-1.5-0.5-2.4
	c-0.5-2-1.2-3.8-2.3-5.3c-1-1.6-1.7-3.2-2.2-4.7l-0.5-1.9l1-1.2l-1.5-1c-0.4-0.2-0.7-0.5-0.9-0.8c-0.4-0.4,0-0.7,1.1-0.7h5.5
	l-0.2-2.5l-1.5-1l-1.8-0.8l0.3-1.2l-1-3.5c0.2-0.7,0.2-1.6,0.2-2.4c-0.1-1-0.4-1.8-1-2.4c-0.3-0.5-0.9-0.8-1.5-0.9
	c-1.8-0.9-3.1-1.4-3.7-1.5c-1-0.3-1.8-0.2-2.5,0.2l-4,2.3l-2.8,2.2c-1.1-0.1-2.2-0.1-3.2,0.2c-1.2,0.7-2,1.1-2.5,1.4
	c-1,0.4-1.5,0.3-1.8-0.6c0-0.4,0-1.2,0.1-2.4c0-0.5-0.3-0.4-1.1,0.2c-0.5,0.4-1.1,0.8-1.5,1.4c-0.5,0.4-1.2,1-2.2,1.8
	c-1.2,0.9-2.3,1.5-3.5,2.1c-1.3,0.4-2,0.8-2.5,0.9c-0.5,0.3-0.9,0.5-1.1,0.6c-0.4,0.2-1,0.3-1.9,0.4l-3.8,0.2l-1.2-1.2
	c0-0.2,0-0.4-0.2-0.4c-0.4-0.2-1.1,0-2.3,0.6c-1.1,0.7-2,1.3-2.8,1.9l-0.7,0.7l1.1,0.1c0.4,0.3,0,0.9-1.4,1.6
	c-1.3,0.7-2.5,1.3-3.4,1.6l-1.1,0.4h-3.7c0-0.1-0.1-0.3-0.3-0.4c-0.2-0.1-0.7,0.1-1.2,0.7c-0.3,0.3-0.5,1.2-0.8,2.8
	c-0.2,1.5-0.7,2.5-1.7,2.9c-1,0.6-2.1,0.9-3.3,1c-1.4,0.1-2.5,0.2-3.2,0.3c-0.8,0.1-1.5,0-1.8-0.2c-0.5-0.2-1-0.4-1.5-0.4
	c-1.1-0.1-2-0.2-2.5-0.2c-0.8,0-1.5,0.4-2,1.2c0,0.1-0.4,0.7-1,1.9c-0.3,0.4-0.5,1-0.5,1.7c0,0.6,0.2,1.3,0.5,2.1
	c0.3,1,0.5,1.7,0.5,2.1c0.2,0.9,0,1.8-0.5,2.6c-0.5,0.8-1.1,1.3-2,1.4c-0.7,0.1-1.8,0.1-3.4-0.1c-2-0.1-3-0.1-3.1-0.1
	c-0.5,0-1.7-0.4-3.7-0.9c-2.3-0.8-3.5-1.1-3.8-1.1c-0.4-0.2-0.7-0.4-1.2-0.4c-0.5-0.1-2-0.2-4.5-0.2c-2.4,0-4.5,0-6.3-0.1l-2-0.1
	c0,0.2,0,0.2,0,0.2c-0.2-0.1-0.5-1-1-2.4c-0.5-1.9-1-3.1-1.5-3.8c-0.6-0.8-1.1-0.8-1.5,0l-1.5,3.2c0,1.4-0.3,2.4-1,3.3
	c-0.3,0.4-0.5,0.7-0.7,0.7c-0.8,0.2-1.6,0.4-2.4,0.7c-0.2,0-0.4,0-0.6,0.1c-2.2,0.6-3.6,1-4.3,1.2c-1.1,0.3-2,0.8-2.7,1.6
	c-0.5,0.4-1.2,0.6-1.9,0.5c-0.3-0.1-0.2,0.6,0.1,1.7c0.3,0.9,0.6,1.4,0.8,1.4c0.3,0.1,0.7,1.2,1.2,3.4c1,3.8,1.5,6.7,1.5,8.7v1.4
	c0.8,0.2,0.8,0.3,0,0.1v-0.1c-0.4-0.3-1-0.5-2-0.9l-4.5-1.8l-2,0.8c-0.6,0.6-1.4,1.6-2.2,3c-1,1.6-1.8,3.5-2.3,5.8
	c-0.1,0.6,0.7,0.8,2.2,0.6c1.4,0,1.7,0.7,0.8,2.1c-0.9,1.6-2,2.9-3.4,3.9l-1.8,0.8l-0.5,0.7c-0.1,0.6,0.3,1,1.2,1.3
	c1.5,0.5,2.2,0.8,2.3,0.9c0.5,0.3,1.1,0.9,1.7,1.9c0.8,1.1,1.6,2.2,2.3,3.1l-4.5,2.7l-1.5,2.4l-0.8,3.3l-2.7,1.5
	c-0.6-0.3-1.2-0.4-1.5-0.5c-0.8-0.1-0.5,0.5,0.7,1.7c2,2,3.5,3.3,4.5,3.8l1,1.2l-4.5,2.6c-0.4-0.6-0.7-0.9-0.9-1.1
	c-0.5-0.3-0.3,0.7,0.7,3.1c1,2.3,1.4,4,1.4,5.3c-0.1,0.6-0.2,1-0.4,1.1c-0.8,0.5-1.5,0.9-2.3,1.5c-1.5,1.1-2.3,1.9-2.5,2.5
	c-0.1,1-0.2,2.3-0.2,3.8c0.2,0.9-0.1,1.8-0.6,2.4c3.7,3.3,6.2,5.2,7.4,5.6c0.7,0.2,1.2,0.3,1.7,0.4l1.3-0.2c1,0,1.7,0.4,1.9,1.2
	c0.5,1.1,1.2,2.2,2,3.2c0.5,0.8,1.1,1.3,1.8,1.5h2c0.3,0,0.7-0.2,1.2-0.5c0.1,0,0.5,0.4,1,1.3c1,1.5,1.7,2.2,1.8,2.2l0.6-0.5
	c0.6-0.4,1.5-0.7,2.6-1c1-0.2,1.4-0.4,1.3-0.4c0.2,0.1,0.9,0.2,2.2,0.2h3.7c0.5-0.1,1.1-0.3,1.6-0.8l1.5-1.2c-0.5-0.5-0.9-0.8-1-1.2
	c-0.3-0.7,0.5-0.9,2.5-0.6c1.6,0.3,2.9,0.5,4,0.5c0.2,0.1,0.5,0.5,0.7,1c0.2,0.3-0.1,0.5-0.7,0.8c-0.1,0.2,0.7,0.5,2.5,1.2
	c1.6,0.6,3,0.9,4.3,1c0.4,0.1,0.7,0.8,0.7,2.3v5.5l1.3,1.2c1,1,1.8,1.6,2.4,2c0.7,0.4,1.3,0.7,1.9,1c0.4,0.1,0.9,0.3,1.6,0.5
	l2.8,0.6c1.3,0.2,2,0.7,2.2,1.2c0.2,0.4,0.5,0.8,0.7,1.4c0.1,0.6,0.2,1.2,0.1,2.1c-0.2,1.3-0.5,2.5-1,3.7c-0.5,0-1,0-1.5,0.2
	c-1,0.3-1.5,0.8-1.5,1.6c0,0.8,0,1.2,0.1,1.2c0.1,0.2,0.9,0.5,2.1,1c1,0.5,2,0.8,3.3,0.9c0.5,0.1,0.5,0.7-0.3,1.6
	c-0.5,0.7-1.3,1.3-2.4,1.7c-0.8,0.3-1.2,0.8-1.3,1.6c0,0.5-0.4,1.1-1,2c-0.1,0.3,0.2,0.5,1,0.5c0.8,0,1.5-0.1,2.3-0.3
	c0.7-0.2,1.2-0.2,1.7-0.2c1,0,3.4-0.4,8-0.5c0.5-0.3,0.8-0.7,1-1.3c0.4-0.2,1.1-0.1,2.2,0.5c1.5,0.8,2.5,1.4,3,1.8
	c0.7,0.5,1.8,1.6,2.1,2.2c0.7,0.3,1.7,0.8,3.2,1.4c0.7,0.3,1.6,0.6,2.7,1.1c3.8,1.6,5.3,2.9,4.3,3.8c-0.5,0.2-1.1,0.5-1.6,1
	c-1.1,1-1.4,1.9-1.2,3c0.3,0.8,0.5,1.2,0.6,1.4c0.2,0.1,0.6,0.6,0.9,1.6c0.4,0.7,1,1.3,1.8,1.7c0.5,0.2,0.7,1,0.7,2.3
	c0,1.1,0,2.4,0.1,3.6c0,0.8-0.1,1.4-0.3,2.1c-0.6,1.8-1.8,2.8-3.8,2.8c-0.7,0-2-0.3-3.8-0.8c-1.9-0.6-2.9-0.9-3.4-1
	c-1-0.5-1.8-1-2.5-1.3c-1.2-0.6-2.2-0.5-3,0.3c-0.5,0.5-1.3,0.9-2.8,1.5c-0.7,0.2-0.7,0.8-0.2,1.8c0.5,0.8,1.2,1.4,2,1.7
	c0.6,0.3,1,0.7,1,1.3c0,0.4-0.1,0.8-0.5,1.2c-0.2,0.3,0.1,0.9,0.7,1.8c1.2,1.5,2.5,2.6,3.8,3.5c-0.2,0.3-0.5,0.7-0.7,1.1
	c-0.5,0.9-0.8,1.6-1.1,2.1c-0.7,1.8-0.6,2.9,0.3,3.2c0.8,0.4,2.2,0.4,4,0l0.7-0.7c0.3-0.3,0.5,0.1,0.5,1.2c0,1,0.2,2,0.5,3
	c0,0.8-0.2,1.7-1,2.8c-0.6,1.1-1.3,2-2.2,2.7c-0.8,0.9-1.5,1.6-1.8,2c-0.3,0.6-0.7,0.9-0.9,0.9c-0.3,0.1-0.9,0.5-1.6,1.1
	c-0.8,0.9-1.4,1.7-1.7,2.5c-0.1,0.5-0.3,0.8-0.3,1l0.4,0.6c0.1,0.3,0.1,0.5-0.1,0.8l5.7,0.5c0.8,0.5,1.3,1,1.5,1.6
	c0.4,1,1,3.3,1.8,6.8l3.2,1l2.8-1l1.2-1.8c0.8-0.7,1.7-0.1,2.5,1.8c1.4,3.1,2.2,5,2.3,5.5v2l2.5,0.2l1.7-0.5l1.3,1.8
	c4.5-3.1,8.4-2.9,11.6,0.5l2.4-0.3c0.8-0.5,1.4-1.1,1.5-2c0.1-0.5,0.2-1.3,0.2-2.4v-1.6l1.3,0.8l1,3l-1.3,1.5l1.5,1.2l0.7,0.1
	c0.4,0.1,0.6,0.4,0.6,0.9s-0.1,1.3-0.3,2.5c-0.2,1,0,1.8,0.5,2c0.9,0.5,1.5,0.8,2,0.8l4.8,0.2l6.2-0.2l1.8,1.5l0.1,0.6
	c0.2,0.5,0.6,0.9,1.4,1.1c0.5,0.3,1,0.5,1.7,0.9c0.5,0.2,1,0.5,1.5,0.6c0.5,0.2,0.8,0.5,1,1c0.2,0.1,0.5,0,1-0.5
	c0.5-0.4,1-0.7,1.5-1c0.2-0.2,0.5-0.6,0.8-1.2l1.5-2.5h3.7l1.5-0.5l1.3-1c-0.3-0.3-0.6-0.6-0.7-0.8c-0.1-0.3,0.7-0.1,2.2,0.8
	c2.4,1.2,3.6,1.9,3.8,2.1c0.8,0.3,1.6,0.6,2.2,0.6c0.7,0.1,1.8,0.1,3.7,0.1c-0.3-0.7-0.5-1.3-0.5-1.8s0.2-1.3,0.5-2.3
	c0.4-1,0.5-1.7,0.5-2.2c0-0.7,0-1.2-0.2-1.7c-0.3-0.6-0.6-1.1-0.8-1.6c-0.2-0.5-0.2-1.1,0.1-1.8l0.4-0.9l0.8-10.8
	c-1.3-0.3-2.1-1-2.5-2c-0.2-0.6,0.2-1.2,1.3-1.7c0.5-0.3,1.2-0.6,1.7-0.8l-0.3-3.5c-1.1-0.6-2.2-1.2-3.2-1.7
	c-1.3-0.6-1.5-2.3-0.8-5.3c0.3-0.8,0.9-0.6,2,0.7c0.5,0.6,1,1.3,1.5,2.1l3.5-6c1.3-2,1.1-3.8-0.3-5.2c-2-1.5-3.2-2.6-3.7-3.5
	c-0.5-1.3-0.9-1.9-1-2c-0.4,0.2-0.7,0.2-1.2,0.2c-1.2,0-2.3,0-3.1,0.1c-1.6,0-2.8,0-3.7-0.1c-0.8-0.1-1.5-0.6-2-1.5
	c0-0.1-0.5-1.2-1.2-3.2c-1-2.8,0.1-4.5,3.2-5.3c1.3-0.3,2.3-0.1,3,0.6c0.3,0.4,0.5,0.7,0.5,1.2l2.6-0.1c1.7,0,2.9-0.1,3.4-0.2
	c0.5-0.1,0.7-0.5,0.6-1.2c-0.1-1-0.1-1.7,0.2-2c0.2-0.3,1-1,2.3-2c1.2-0.8,1.9-1.6,1.9-2.3c0.2-0.6-0.2-1.1-0.8-1.5
	c-0.9-0.6-1.7-1.4-2.2-2.2c-0.6-1.2-1-1.8-1.4-2.1l-0.3,0.1l2.8-1.2c2.1-0.9,3.9-1.8,5.2-2.6c1.3-0.8,1.8-1.4,1.5-1.8
	c-1-1.6-1.5-2.4-1.5-2.7c-0.3-1.2-0.7-1.5-1.1-1.1c-0.9,0.9-1.4,1.3-1.7,1.4c-0.6,0-1.2-0.1-2-0.5l-1-0.5c1.5-2.4,2.4-4.2,2.5-5.5
	c0.2-1,0.1-1.8-0.2-2.5c-0.1-0.4-0.8-1.8-2-4c-1-1.8-0.6-2.8,1-3.2c0.8-0.1,1.7-0.1,2.7,0.2l3.8-2.5l12-2.5l2.5,0.2l2.7-0.5l1.3-1.5
	l1.2-0.2l2,2.2l1.5,1c5.2-2.4,7.2-4.5,6-6.2l6.5,2.7c1.5,0.9,2.4,1.3,2.6,1.2c0.2-0.1,0.5-0.2,0.9-0.4c0.7,0,0.8-0.3,0.5-1
	c-0.5-1.5-0.8-2.3-1-2.8c-0.1-1-0.2-1.7-0.2-2.2c0-0.4,0-1,0-1.5c0-0.8,0.1-1.2,0.2-1.3c0.2-0.1,0.3,0,0.3,0l3.7,0.8l2.5,1.2
	l1.8,0.5c1.3,0.4,2.6,0.6,3.7,0.8c1.9,0.1,2.9,0.1,3.3,0l3.2-4.3c0.6-0.7,0.9-1.2,0.9-1.5c0-0.3-0.1-0.7-0.1-1.2
	c0-0.8,0.1-1.3,0.1-1.6c0.1-0.2,0.4-0.9,0.9-1.7c0.3-0.7,1.3-0.5,3,0.7c1.4,1,2.1,1.3,2,1.1c-0.4-1.7-0.5-3.3-0.5-4.8
	c0-1.2,0.2-2,0.8-2.8c0.8-1,4.4-1.6,9.4-1.9l0,0l0,0c0,0,0,0,0,0C657.7,353.7,657.6,353.5,657.6,353.3z"/>
<path id="podlaskie" class="st0" d="M619.7,132.8c0.6,0.6,0.9,1.5,0.9,2.7c0.4,0.6,0.5,1.3,0.5,1.9c0.1,1.5-0.5,2.5-1.7,3.1
	c-2.2,1.1-4.8,2-7.8,2.8c-1.5,0.1-2.6,0.3-3.4,0.5c-1.3,0.2-2.3,0.7-2.8,1.5c-0.8,0.8-1.2,1.3-1.4,1.6c-0.2,0.4-0.2,1,0.1,1.9
	c0.2,0.4,0.4,1.1,0.6,1.9c0.2,0.6,0.5,1.3,0.9,2.3c0.6,1,1.3,1.9,2.2,2.5c0.4,0.4,0.7,0.6,1.1,0.8l1.2,1.5l-0.2,1.5
	c-0.3,1.1-0.5,1.9-0.8,2.5c-0.1,0.4-0.4,0.7-0.7,1c-0.3,0.2-0.2,0.7,0.2,1.5c0.4,0.6,1.1,1.2,2.1,1.8c1.3,0.7,2.1,1.3,2.4,1.7
	c0.3,0.2,1,0.6,2.1,1.1c0.8,0.4,1.4,1.2,1.9,2.4c0.5,1,1.1,2.1,2,3.5c0.8,1.1,1.3,2,1.3,2.5c0.3,1.8,0.3,3.8,0,6c0,0.2,0,0.7,0,1.5
	c0,0.3-0.2,0.8-0.5,1.5c-0.3,0.5-0.7,1.2-1.1,1.9c-0.4,0.6-0.8,1.1-0.9,1.6c-0.1,0.2-0.3,0.5-0.5,1c-0.2,0.2-0.3,0.5-0.3,1
	c0,0.8-0.2,1.7-0.7,2.7l-2.5,0.3v0.4c-0.1,0.3-0.3,0.8-0.5,1.3c-0.3,0.7-0.9,1.7-1.9,3c-1,1.3-1.9,2.3-2.6,2.8
	c-0.7,0.4-1.4,0.7-2.4,1.1l-1.4,0.4l-2.2,1c-0.1,0-0.3,0-0.3,0.2c-0.2,0.2-0.2,0.6,0,1.3c0.4,1,0.5,1.7,0.5,2.2l0.9,0.1
	c0.2,0.2-0.6,0.4-2.4,0.7c-2,0.1-3.2,0.2-3.7,0.2c-0.5,0.1-1.2,0.6-2,1.5c-3.8,4.5-6.3,7.3-7.3,8.5c-0.5,0.7-1,1.1-1.7,1.5
	c-0.6,0.3-1.1,0.6-1.5,1c-0.5,0.5-1.3,1-2.5,1.3c-1.3,0.3-2.3,0.5-2.8,0.7c-0.6,0.2-1.5,0.5-2.7,0.7l-1.8,0.3h-3.5l-1.7,4.5
	l-1.3,1.8l-2.7,0.7l-4.5-0.5c-1.5-0.2-2.7-0.2-3.5,0c-1,0.1-1.8,0.3-2.3,0.5c-1.1,0.2-1.9,0.5-2.5,0.8c-0.1,0-0.3,0.2-0.5,0.3
	c0.6,0.6,0.9,1.4,1,2.4c0,0.8,0,1.7-0.2,2.4l1,3.5l-0.3,1.2l1.8,0.8l1.5,1l0.2,2.5h-5.5c-1.1,0-1.5,0.3-1.1,0.7
	c0.2,0.3,0.5,0.6,0.9,0.8l1.5,1l-1,1.2l0.5,1.9c0.5,1.5,1.2,3.1,2.2,4.7c1.1,1.5,1.8,3.3,2.3,5.3c0.3,0.9,0.5,1.8,0.5,2.4l1.5,1.7
	l2.5-0.4h2l2.2,1.2l1,2.5l1.8,2.5l2-2.5l2.5,0.5l0.2,2.2c0,1.4-0.5,2.2-1.5,2.6c-0.6,0.1-1,0.3-1.2,0.5v0.2l0.7,3.5l3.8,1.8l2.5,4.4
	l-1.5,2.3l0.2,2.5l2.8,2.2l3.5,0.3l1.4-0.9c1.1-0.6,1.8-1.2,2.3-1.6c0.9-0.6,1.7-1,2.5-1l1.5,0.2c1,0.2,1.8,0.3,2.3,0.3
	c0.7,0,1,0.3,1.2,0.9c0,0.5-0.1,1.5-0.5,2.8c-0.2,1.2,0,2.6,0.8,4.2c0.3,0.8,0.8,1.5,1.2,2.1l2,1.7l2.5-1.4l3.5-1.3l1.8,1.7l-1,3.3
	l-0.5,5.5c0,0.2,0.1,1.1,0.1,2.5c0.1,1.4,0.1,2.7,0.1,4c0,1.4,0.1,2.1,0.3,2.2c0.1,0.2,0.6,0.3,1.5,0.5c0.7,0.5,1.3,1.2,1.6,2.2
	c0.2,0.5,0.4,1,0.4,1.4l5,9.4c1.1,2.4,2.1,4.7,3,6.8l8,2.8l1.9,0.2c1.3,0.1,2.3,0.2,2.8,0.2c4.2,0,8.1,0.2,11.8,0.3
	c2.3,0.1,3.5,0.7,3.5,1.9c0,0.5-0.3,1-0.8,1.6l1,0.9c1.2,0.7,2.8,1,4.8,0.9c2.1-0.2,3.7,0.6,4.7,2.3c0.6,0.8,0.9,1.5,1,2.4l2.5,1.4
	c0-0.7,0-1.4,0-2.3c0.3-3.7,1.4-7.7,3.3-12.2c3.3-7.4,5-11.3,5.1-11.5c0.4-0.7,1-1.4,1.6-2c1.7-2.1,4.1-4,7.4-5.8
	c3.5-2,5.6-3.2,6.5-3.5c3-1.3,5.3-2.3,6.7-3c3.4-1.6,6.1-3.5,8.2-5.6c0.2-0.2,0.3-0.3,0.5-0.5c1-1.3,1.7-2.4,2-3.3
	c-0.4-9.1-0.8-15.8-1.3-19.8c-0.2-1.8-0.2-2.8,0-3c0.2-0.3,0-1.8-0.5-4.7c-0.4-3.1-1-5.3-1.6-7c-0.4-1.2-0.6-2.1-0.6-2.5
	c0-0.1,0-1.1-0.2-2.6c-0.1-0.9,0-1.7,0.2-2.4c1.2-4.4,1.5-7.1,0.5-8.3c-2.9-3.4-4.4-5.1-4.4-5.3c-3.2-5-7-13-11.6-24.2
	c-5.2-12.7-8.4-20.8-9.6-24.3c-1.1-3-1.7-5.1-1.7-6.4c0-5.1-0.1-8.1-0.2-9c-0.1-0.6-0.6-1.7-1.4-3.1c-0.8-1.5-1.5-2.5-2.1-3.2
	c-1.3-0.7-2.1-1.4-2.6-2.2c-0.9-1.2-0.8-3.1,0.3-5.5c1.9-3.8,2.8-6.5,2.8-8l-4.3-6.7c0-1.4-0.4-2.7-0.9-4.1
	c-1.1-2.9-2.7-4.5-5.1-5.2c-2.2-0.7-4.2-1.1-5.7-1.5l-1.8-0.2l-2.7-2.3l-3.3-1.7h-5.2l-0.3-3.3l-3-3l-4.5-2c-0.4-0.3-1-0.7-1.6-1.1
	c-1.4-0.6-2.5-0.8-3.6-0.6c-0.4,0.1-0.7,0.2-1,0.4c-0.1,0.2-0.3,0.4-0.5,0.6C621.2,131.9,620.6,132.3,619.7,132.8z"/>
<path id="slaskie" class="st0" d="M421,634.6c0.4-0.2,1.3-0.9,2.9-2.2c-1-2-2.4-4.4-3.8-5.7c-1.1-1.1-1.5-1.6-1-1.7
	c1-0.1,1.7-0.3,1.8-0.6c0.3-0.5,1-1,1.9-1.3c0.5-0.2,1-0.3,1.3-0.4l-1-1.8c-1.3-0.6-2.9-1.3-4.7-2.2c-1.2-0.5-1.8-0.7-2.2-0.5
	c-0.1,0.2-0.1,0.3-0.1,0.5c-1.3,0-2.3-0.1-3.2-0.5c-0.5-0.3-0.9-0.6-1.1-1.3c-0.1-0.2-0.2-1-0.4-2.2c-0.2-0.8-0.3-1.3-0.5-1.5
	c-0.1-0.1-0.8-0.4-2.3-0.8c-0.6-0.1-1.7-0.2-3.2-0.4c-0.8-0.1-1.5-0.4-1.8-0.8c-0.2-0.5-0.2-1.1,0.2-2c0.8-1.9,1.2-3,1.3-3.5
	c0.5-1.3,0.4-2.3-0.2-2.8l-1-0.4l-0.5-2.8c-1,0-2.3-0.1-3.8-0.5c-0.8-0.1-1.1-0.5-0.7-0.8c0.6-0.8,1-1.3,1-1.7
	c0.2-1.1,0.2-2,0.3-2.7c0.2-1.3,0.6-2.4,0.9-3.5c0.4-0.9,0.8-1.4,1.1-1.6c1.2-0.3,2.2-0.7,2.9-1.2c1.5-0.8,2.3-1.8,2.5-3.1
	c-0.2-1.4-0.2-2.7-0.2-3.6c0-1.3,0.2-2.1,0.5-2.4c0.2-0.1,1.1-0.4,2.7-0.6c2-0.4,2.8-0.6,2.3-0.8c2.3-3.3,4.7-5.8,7-7.5
	c1.3-0.9,1.5-1.4,0.6-1.5c-1.8-0.1-2.9-0.3-3.4-0.7c-0.8-0.6-1.3-1.1-1.6-1.4c-0.3-0.4-0.6-1.1-1.1-2.4c-0.4-1,0.2-1.8,1.7-2.5
	c2.4-0.9,3.8-1.5,4-1.7c0.5-0.4,1.3-0.9,2.3-1.6c0.7-0.4,1.3-1,1.7-1.7c0.5-0.6,0.8-1.4,0.7-2c-0.3-0.9-0.4-1.6-0.4-2.2
	c0-0.9,0-1.4,0.2-1.7c0.1-0.2,0.5-0.3,1-0.3c0.3,0,1.2,0.2,2.6,0.7s2.7,0.6,3.7,0.5c1.2,0,2-0.4,2.5-1l0.5-1l2-0.2
	c1.3-0.2,3.9-0.4,7.5-0.7c0-0.1,0.2-0.1,0.2-0.1l1.8-1.7l6.7-2.5l-1.5-1.8l-1-1.7c-0.5-0.2-1.1-0.3-2-0.5c-0.5-0.1-1.2-0.3-2-0.6
	l-1.2-0.4c-1.5-0.7-2.6-1.4-3.5-2.3c-0.5-0.5-0.5-0.7,0.2-0.5c0.3,0,0.7,0.1,1,0.3c1.5-2.2,2.5-3.9,3-5c0.3-0.8,0.8-1.3,1.2-1.5
	l0.6-0.3c0.3-0.2,0.8-0.5,1.3-0.9c0.9-0.6,1.7-1.1,2.2-1.3c0.5-0.2,0.7-0.7,0.4-1.3l-0.7-1c-1.5,0-2.8-0.1-4-0.5
	c-0.7-0.1-1.2-0.5-1.5-1l-0.2-0.7c0.5-0.7,1.4-1.6,2.7-2.8c0.9-0.7,0.6-0.9-0.8-0.6l-2.4,0.6l-6.5-0.7l-1-2v-2.8l1.2-0.2l3.5-1.5
	c0-0.8,0.1-1.8,0.3-3c0.1-0.8,0.5-1.2,1.2-1.4c0.3-0.1,0.7-0.1,1-0.1l0.3-2c-0.5-0.7-1.3-1.2-2.5-1.5c-0.5-0.2-1.2-0.4-1.8-0.8
	l-1.5,0.3c-0.8,0.1-1.7,0.1-2.7,0c-0.6-0.1-1.2-0.3-1.7-0.7l-0.6-0.6c-0.8-1-1.3-1.9-1.7-2.7c-0.4-1-2-1.2-5-0.5
	c-1,0.2-1.6,0.5-2.1,1c-0.2,0.2-0.4,0.3-0.4,0.5l-1.1-0.4c-0.6-5-2.2-7.8-4.9-8.4c-0.1-1.3-0.4-2.4-0.8-3.2
	c-0.2-0.5-0.7-0.9-1.7-1.1l-1.5-0.2c-0.2,0-0.4-0.1-0.6-0.2c-0.4-0.4-0.7-0.8-0.7-1.5c0.2-0.7,0.2-1.2,0.1-1.4
	c-0.1-0.4-0.4-1-1.1-1.9c-0.5-0.7-1-0.8-1.3-0.1c-0.4,0.9-0.9,1.4-1.2,1.4c-0.5,0.1-1,0.4-1.3,1c-0.2,0.2-0.3,0.5-0.4,0.7l-1.5,0.8
	c-0.3,0-1.1-0.3-2.5-0.8c-0.7-0.2-1.5-0.4-2.5-0.6c-1.1-0.1-2.1-0.4-3-0.6c-1-0.3-1.7-0.5-2-0.6c-0.4-0.2-0.8-0.3-1-0.4
	c-0.8-0.3-1.7-0.8-2.8-1.7c-1-0.8-2-1.8-2.7-2.8c-0.3-0.4-0.7-1-1.1-1.7c-0.2-0.4-0.8-1.1-1.7-2.1s-1.2-0.9-0.9,0.3
	c0.2,0.5,0.4,1.2,0.7,2l-1.1,1.1c-0.9,0.5-2,0.5-3.2-0.1c-1.1-0.7-2-0.8-2.6-0.5l-9.1,2.5l0.2,0.2l0.5,0.6c0.1,0.6,0.1,1.2-0.2,1.8
	c0,0.1-0.4,0.8-1.1,2c-0.4,0.8-0.7,1.5-0.9,2c-0.3,0.7-0.4,1.4-0.5,1.9c0,0.3,0,1,0,1.9c0,0.7,0.1,1.3,0.2,2.2
	c0.2,0.9,0.3,1.5,0.3,1.8c0,0.6-0.1,1.2-0.5,1.7c-0.2,0.5-0.7,1.1-1.5,2.1c-1,1.1-2,2.1-3,3l-0.3,0.1c-0.4,0.4-0.7,1-1.2,2.1
	c-0.6,1.7-1,3.3-1,5c0,0.8,0.6,1.8,1.7,3l-2.2,2.5c-0.5,0.7-1.3,1.3-2.3,1.7c-0.5,0.5-0.6,1.4-0.2,2.6c0.4,1,0.7,2.1,0.9,3.5
	c0.4,1,1.5,2,3.1,2.9c0.7,0.5,2.3,1,4.8,1.6c1.2,0.3,1.7,1.1,1.4,2.4c-0.3,2.6-1.7,4-4.2,4.6c-0.4,0-1.3,0.1-2.6,0.1
	c-1.4,0-2.2,0-2.7,0.1c-0.2,0.1-0.9-0.1-2-0.2c-0.7-0.2-1.2,0-1.5,0.4c-0.3,0.9-0.2,2.1,0.3,3.8l0.5,0.2c0.2,0.2,0.4,0.9,0.2,1.8
	c-0.1,1.2-0.2,1.9-0.5,2.3c-0.2,0.4-0.7,0.5-1.5,0.2l-3.5-1.5l1,1.3c0.5,1.1,0.6,2.4,0.3,3.7c-0.3,1.3-0.8,2.6-1.6,3.7
	c-0.4,0.5-0.8,1-1.2,1.3l0.8,3l1,2.2l-1,0.6c-0.5,0.6-0.4,1.2,0.2,2c0.3,0.3,0.9,0.8,1.8,1.6c0.5,0.4,1,1.1,1.2,1.8
	c0.5,1.4,1,2.9,1.5,4.6l-2.5,0.7h-4.2l-4.2,1l-1.3,3c0.3,0.7,0.1,1.2-0.7,1.5c-0.3,0.1-0.5,0.3-1,0.6c-0.3,0.2-0.8,0.3-1.5,0.4
	l-9.3,1.2l-0.7,5.3l0.3,4.3c0,0,0,0,0.1,0c0.3,0.2,0.6,0.5,0.9,1c1,1.5,1.7,2.9,2,4.2l5.5,2.3l1.4,0.9c1.1,0.9,1.9,1.8,2.6,2.8
	c1,1.7,2.2,2.9,3.5,3.5l3-2.5l3.5,1.8l2.7-0.3l1.2,0.2c0.7,0.3,1.3,0.8,1.6,1.6c0.4,0.9,1,1.2,2,1c0.5-0.1,1.2-0.2,2.1-0.5
	c-0.2-2.4-0.1-3,0.5-1.9c0.3,0.8,0.4,1.3,0.2,1.7c0.3,2.1,0.5,3.6,0.8,4.7c0.2,1,0.3,1.7,0.4,1.9c0.1,0.5,0.1,1.3,0.1,2.5
	c0.1,1.3,0.2,2.9,0.4,4.5c0.3,2.5,0.6,4.1,0.9,4.8c0.5,1,1.7,2.2,3.6,3.5c1.7,1.2,3.1,2,4.3,2.5c0.6,0.2,1.5,0.5,2.5,0.8
	c0.4,0.1,1.2,0.2,2.2,0.3c0.8,0.4,1.3,1.7,1.5,3.9c0.2,2,0.6,3.9,1.2,5.6c0.5,1.6,0.8,2.6,0.8,2.9c0,0.5,0,0.8-0.1,0.9
	c0,0.1,0.2,0.6,0.4,1.6c0.2,1.1,0.6,1.9,1.1,2.2c0.3,0.3,1.3,0.4,2.9,0.6c0.7,0,1.4-0.3,2.1-0.9c0.2-0.3,0.5,0.4,0.9,1.9
	c0.3,1.3,0.6,2.3,0.8,3c0,0.3,0.2,1.2,0.4,2.7c0.1,1,0.1,2-0.3,3.3c-0.1,0.6,0.2,1.1,1.1,1.4c0.7,0.4,1.3,0.7,1.8,0.8
	c0.1,0,0.5-0.3,1.4-1c0.1-0.1,0.5-0.5,1.1-1.3c0.1-0.2,0.6-0.2,1.4-0.2c0.3,0,0.6,0,0.8,0c0.2-0.1,0.4-0.1,0.6-0.2
	c0.2-0.1,0.6,0,1.3,0.2c0.9,0,2.1,0.3,3.7,0.9c0.1,0,0.2,0,0.4-0.1c0.3-0.4,0.5-1.1,0.8-1.9c0.7-1.5,1-2.7,0.9-3.4
	c-0.1-0.2,0.4-1,1.4-2.1c0.1-0.2,0.6-0.7,1.3-1.6c0.3-0.5,0.8-1.1,1.4-1.8c0.3-0.3,0.7-0.6,1.4-1c0.8-0.4,1.4-0.7,1.6-0.9
	c0.3-0.2,1.1-0.7,2.1-1.6c0.1-0.1,0.2-0.2,0.3-0.2c0.4-0.5,0.9-1.1,1.4-1.9c0.3-0.4,0.7-0.8,1-1.1
	C418.7,636.3,419.7,635.4,421,634.6z"/>
<path id="podkarpackie" class="st0" d="M652.4,684.6c-0.4-3.1-1.3-5.8-2.4-8c-1-1.9-1.8-3.1-2.6-3.6c-0.3-0.2-1-0.4-2.2-0.5
	c-1-0.2-1.7-0.5-2.1-1c-0.4-0.5-0.7-1-0.8-1.3c-0.1-0.3-0.2-0.9-0.2-1.7c0.3-2.6,0.4-5.2,0.4-7.8c0-5.1-0.4-8.9-1.4-11.7
	c-0.6-1.8-1.7-4.3-3.2-7.3c-1-2.2-1.7-3.9-1.8-5.2c-0.1-1.3,0.9-3.3,2.8-6c2.6-3.6,3.9-5.5,4-5.7c0.8-1.6,5.3-8.9,13.6-21.9
	c8.5-13.1,13.6-20.9,15.4-23.3c3.3-4.4,6.7-8.9,10.4-13.5c2-2.7,3.8-4.9,5.2-6.7l-1.6-2.2c-3.7-2.1-5.7-3.6-6-4.5
	c-0.2-0.4-0.2-0.8,0-1.1c0.2-0.4,0.5-0.9,0.5-1.1c0.1-0.9-0.6-2.1-2.3-3.8c-2.8,2.4-5.1,3.9-6.7,4.5c-1,0.4-1.7,0.4-2-0.1
	c-0.4-1.1-0.9-2.1-1.5-3.1c-0.8-1.2-1.7-1.8-2.8-1.8l-1.5,0.3l-0.8,1.7c-0.7,1.3-1,2.3-1.2,3c-0.1,1-0.6,2.1-1.3,3.5
	c-0.8,1.5-1.8,2.8-2.9,3.8c-0.9,0.9-2.2,1.2-3.8,0.9c-2.1-0.6-4-1-5.5-1.2c-1.7-0.1-3.1-0.4-4.3-0.6c-1.9-0.4-3.4-0.7-4.4-0.9
	c-2-0.2-3.5-0.5-4.3-0.6c-1.1-0.2-3.2-0.8-6.2-1.6c-2.7-0.8-3.4-1.2-2.1-1.1c2.5,0.1,4,0,4.3-0.2c0.8-0.3,1.3-0.9,1.3-1.6
	c0.1-0.4,0-1.2-0.3-2.4c-0.1-0.5-0.6-0.7-1.6-0.6c-1.5,0.4-2.6,0.5-3.1,0.4c-0.8-0.1-1.6,0.1-2.4,0.4c-1.4,0.5-2.6,0.8-3.9,1.1
	c-1.6,0.3-2.5,0.2-2.6-0.1l0.4-0.7l-3.3-2l-0.5-3l1.8-0.5c0-0.8,0.3-2,0.9-3.7l2.5,0.1c1.9-0.1,3.3-0.2,4.1-0.4
	c2-0.4,2.6-0.8,1.9-1.3l-4.2-1.9c-0.3-2-0.5-3.6-0.5-4.8c0-0.7-0.1-1.4-0.2-2l-0.3-0.7c-1.1-1-2.3-2-3.7-3c-0.9-0.7-1.9-0.9-3-0.9
	l-1.5,0.1l-3-0.5c-0.5-0.1-1.2-0.3-1.9-0.6c-1.3-0.6-2.1-1.4-2.6-2.4c-0.4-0.9-0.9-1.5-1.6-1.6l-0.9-0.1c-2.3-0.3-3.8-1-4.3-2
	c-0.2-0.6-0.2-1.1,0.2-1.5c0.2-0.3,1-1,2.1-2.3c0.9-1,1.2-2.1,1-3.4l-0.5-1.6c-0.2-0.5-0.5-1.1-1-1.7c-0.8-1.4-1.7-2.4-2.8-3
	c-1.1-0.7-2.4-0.8-3.7-0.4c-1.3,0.4-2.2,1-2.8,1.9c-0.6,1-2.9,2.1-6.7,3.5c-0.6,0-1.8-0.5-3.5-1.5c-1-0.6-1.5-1.4-1.5-2.4l-1,14.4
	l-2.3,2l-6.5,1.7l-1.2,1.5c0.5,1.4,0.4,2.6-0.3,3.8c-1,1.7-1.5,2.7-1.7,3c-0.5,0.7-0.9,1.2-1.2,1.6c-0.3,0.3-0.8,0.7-1.6,1.4
	c-0.5,0.5-1.5,1-2.9,1.7c-1.5,0.8-2.4,1.3-2.8,1.5c-1.7,1.4-3.7,3.2-6,5.5c-1.3,1.3-2.3,2.1-3.3,2.5c-1,0.4-2,0.7-2.7,1
	c-1,0.5-1.9,0.9-2.8,1.2l-1.2,0.3l-2,3c-0.1,0.3-0.3,0.5-0.5,0.9c-0.3,0.6-0.5,1.2-0.7,1.8c-0.1,0.2-0.1,0.3-0.1,0.3
	c-0.1,1.2,0,2.1,0.3,2.8c-0.7,0.5-1.3,1.1-2,1.6c-1.3,1.2-2.2,2.1-2.5,2.6c-0.3,0.6-0.4,1.2-0.3,1.7c0,0.5,0.2,1.5,0.5,3.3
	c0.2,1.2,0.5,2.4,0.8,3.4c0,0.8-0.1,1.5-0.5,2.1c-0.3,0.7-1,1.5-2.1,2.4c-0.7,0.8-0.2,1.5,1.3,2.1c2.5,1,4.5,1.8,6,2.3l-3.7,2.5
	l-0.5,2l0.7,1.4c0.3,1,0.3,1.8-0.2,2.3c-0.1,0.2-0.5,0.4-1.3,0.7c-0.3,0.2-0.5,0.8-0.5,2.1c0,1.1,0,2.2-0.2,3.3
	c0,0.6,0.2,1.1,0.7,1.4c2,1.2,3.5,1.8,4.5,1.8c0.9,0,2.2,0.2,4,0.5l0.8,0.9c0.4,0.8,0.3,1.3-0.3,1.6c-0.8,0.5-2,1.2-3.7,2l-5.3,3.7
	l-0.2,3.8l1,1.5l2.3,0.1c1.9,0.3,3.7,1.1,5.2,2.3c1.5,1.3,2.7,2.8,3.5,4.5c0.5,0.9,0.7,1.7,0.7,2.3v1c0,0.7,0.1,1.4,0.3,2
	c0.3,1,0.7,2,1.2,3l-1,0.7c-0.6,0.8-1,1.8-1,3c0,1.3,0.3,2.4,0.7,3.2c0.2,0.4,0.4,0.7,0.6,0.8l2,2.5l-0.5,0.5
	c-0.3,0.3-0.3,0.7-0.3,1.3c0.2,0.8,1,1.9,2.3,3.2l1.5,1.3l-1.8,2.2l0.4,3.8c2.3,0.7,4,1.5,5,2.2c1.4,0.9,2.6,1.1,3.9,1
	c0.5-0.6,1.1-1.1,1.7-1.7c0.3-0.3,0.6-0.6,0.9-0.9c1.9-1.7,3.5-2.5,4.7-2.4c1.8,0.1,3.1,0.4,4,0.8c1.2,0.6,2.2,1.5,3,2.7
	c0.7,1,1.2,1.8,1.5,2.5c0.2,0.5,0.7,0.9,1.3,1.3c0.3,0.2,0.6,0.2,0.9,0c0.4-0.4,0.7-0.6,1-0.8c1.3-0.6,3.2-0.2,5.6,1
	c3.8,2,5.7,3,5.8,3.1c0.8,0.5,1.6,1.3,2.5,2.4c0.3,0.6,0.8,1.1,1.4,1.5c0.2,0.1,0.6,0.9,1,2.2c0.5,1.2,0.7,2.3,0.8,3.2
	c0.1,0.7,0.9,1.4,2.2,2.4c1.7,1.1,2.7,1.8,3.4,2.1c0.5,0.2,1.2,0.5,1.9,0.6c0.5,0.1,1.3,0.1,2.3,0.1s1.7,0.1,2.2,0.2
	c1,0.1,1.9,0.2,2.5,0.2l-0.7,0.6c0,0,0.1,0,0.1,0l-0.7,0.7c-0.2,0.5,0.1,0.9,1,1.2c1.3,0.4,2.2,0.7,2.7,0.7h1.9
	c1.1,0,2.7,0.5,4.7,1.3l-0.6,0.7c0,0.5,0.9,1,2.6,1.6c1.6,0.4,3.1,0.8,4.5,0.9c1.9,0.2,3.1,0.4,4,0.5c1.5,0.4,2.5,0.8,3.4,1.4
	c0.4,0.4,1.2,1,2.4,1.9c0.7,0.5,1.4,1,2,1.7c0.4,0.3,1.3,0.3,2.7,0c0.5-0.1,1-0.3,1.4-0.7c0.1-0.1,0.1-0.2,0.2-0.2
	c0.1,0,0.1-0.1,0.2-0.1c0.2-0.2,0.3-0.3,0.5-0.5c0.2-0.4,1-0.2,2.2,0.8c0.8,0.6,1.6,1.4,2.4,2.2c0.2,0.3,0.7,0.4,1.6,0.5
	c0.8,0.2,1.6,0.4,2.6,0.8C652.8,687.6,652.7,686.4,652.4,684.6z"/>
<path id="lubelskie" class="st0" d="M715.8,486.7c-2.2-2.1-3.3-3.7-3.7-5.1c-0.1-2.7-0.3-4.9-0.6-6.4c-0.4-3-1.6-5-3.6-6.1
	c-2.1-1.3-3.5-2.2-4-2.9c-0.4-0.5-0.5-1.1-0.5-2.1s-0.1-1.9-0.3-2.5c-0.3-0.9-1-1.9-2-2.8c-0.5-0.5-1.7-1.1-3.5-1.7
	c-1.2-0.5-1.8-1.1-2-2c-0.1-0.9-0.1-2-0.1-3.4l-0.1-1.6c-3-0.9-4.9-1.6-5.8-2.5c-0.5-0.5-0.7-0.9-0.6-1.2c0.4-1.2,0.8-3.1,1.1-5.3
	c0.7-3.1,0.9-5.6,0.9-7.4c0-1.4-0.1-2.5-0.6-3.4c-0.3-0.5-0.9-1.1-1.8-1.8c-1.4-0.9-2.3-1.5-2.7-1.9c-1.7-1.5-2.9-6.9-3.5-16.3
	c-0.2-2.7-0.8-4.5-1.8-5.3c-0.6-0.5-0.6-1.2,0-2.2c0.9-1.3,1.6-2.3,2.3-3l0.6-0.6c0,0,0,0,0,0l1.5-1.5c0.3-0.3,0.7-0.6,1.1-0.9
	c0.1-0.4,0-0.9-0.2-1.5c-0.4-0.8-0.8-1.5-1.2-2.2c-0.4-0.6-0.7-1.1-0.8-1.5c-0.7-1-1.1-1.8-1.5-2.3c-0.6-1.1-0.6-2,0-2.5
	c0.1-0.1,0.3-0.2,0.4-0.3c0.1-0.1,0.1-0.2,0.2-0.3c0.4-0.4,0.8-0.7,1.1-1c0.1-0.1,0.2-0.3,0.3-0.4l0.2-2.5c0.2-0.1,0.4-0.2,0.6-0.4
	l0-0.2c0.6-0.4,1.1-0.8,1.5-1.1c0.2-0.3,0.3-0.5,0.4-0.8c0.6-1.3,0.9-2.6,0.9-4.1c0.2-2.4-0.5-4.7-1.9-6.6c-1.5-2.3-2.3-3.7-2.6-4.1
	c-0.4-0.5-1-0.6-1.9-0.4c-0.8,0.2-1.8,0.4-3.2,0.4l-1.8,0.1l-1.5-4.8c-0.2-0.6-0.6-1.2-1.1-1.8c-1-1-2-1.5-3.1-1.2
	c-1,0.3-1.9,0.3-2.7,0l-0.8-0.7h-2.8l-6.7-1.5c-0.1-0.3-0.2-0.8-0.2-1.3l0,0c-5.1,0.2-8.7,0.8-9.4,1.9c-0.6,0.8-0.8,1.6-0.8,2.8
	c0,1.5,0.1,3.1,0.5,4.8c0.1,0.2-0.6-0.1-2-1.1c-1.7-1.2-2.7-1.4-3-0.7c-0.5,0.8-0.8,1.5-0.9,1.7c0,0.3-0.1,0.8-0.1,1.6
	c0,0.5,0.1,0.9,0.1,1.2c0,0.3-0.3,0.8-0.9,1.5l-3.2,4.3c-0.4,0.1-1.4,0.1-3.3,0c-1.1-0.2-2.4-0.4-3.7-0.8l-1.8-0.5l-2.5-1.2
	l-3.7-0.8c0,0-0.1-0.1-0.3,0c-0.1,0.1-0.2,0.5-0.2,1.3c0,0.5,0,1.1,0,1.5c0,0.5,0.1,1.2,0.2,2.2c0.2,0.5,0.5,1.3,1,2.8
	c0.3,0.7,0.2,1-0.5,1c-0.4,0.2-0.7,0.3-0.9,0.4c-0.2,0.1-1.1-0.3-2.6-1.2l-6.5-2.7c1.2,1.7-0.8,3.8-6,6.2l-1.5-1l-2-2.2l-1.2,0.2
	l-1.3,1.5l-2.7,0.5l-2.5-0.2l-12,2.5l-3.8,2.5c-1-0.3-1.9-0.3-2.7-0.2c-1.6,0.4-2,1.4-1,3.2c1.2,2.2,1.9,3.6,2,4
	c0.3,0.7,0.4,1.5,0.2,2.5c-0.1,1.3-1,3.1-2.5,5.5l1,0.5c0.8,0.4,1.4,0.5,2,0.5c0.3-0.1,0.8-0.5,1.7-1.4c0.4-0.4,0.8-0.1,1.1,1.1
	c0,0.3,0.5,1.1,1.5,2.7c0.3,0.4-0.2,1-1.5,1.8c-1.3,0.8-3.1,1.7-5.2,2.6l-2.8,1.2l0.3-0.1c0.4,0.3,0.8,0.9,1.4,2.1
	c0.5,0.8,1.3,1.6,2.2,2.2c0.6,0.4,1,0.9,0.8,1.5c0,0.7-0.7,1.5-1.9,2.3c-1.3,1-2.1,1.7-2.3,2c-0.3,0.3-0.3,1-0.2,2
	c0.1,0.7-0.1,1.1-0.6,1.2c-0.5,0.1-1.7,0.2-3.4,0.2l-2.6,0.1c0-0.5-0.2-0.8-0.5-1.2c-0.7-0.7-1.7-0.9-3-0.6
	c-3.1,0.8-4.2,2.5-3.2,5.3c0.7,2,1.2,3.1,1.2,3.2c0.5,0.9,1.2,1.4,2,1.5c0.9,0.1,2.1,0.1,3.7,0.1c0.8-0.1,1.9-0.1,3.1-0.1
	c0.5,0,0.8,0,1.2-0.2c0.1,0.1,0.5,0.7,1,2c0.5,0.9,1.7,2,3.7,3.5c1.4,1.4,1.6,3.2,0.3,5.2l-3.5,6c-0.5-0.8-1-1.5-1.5-2.1
	c-1.1-1.3-1.7-1.5-2-0.7c-0.7,3-0.5,4.7,0.8,5.3c1,0.5,2.1,1.1,3.2,1.7l0.3,3.5c-0.5,0.2-1.2,0.5-1.7,0.8c-1.1,0.5-1.5,1.1-1.3,1.7
	c0.4,1,1.2,1.7,2.5,2l-0.8,10.8l-0.4,0.9c-0.3,0.7-0.3,1.3-0.1,1.8c0.2,0.5,0.5,1,0.8,1.6c0.2,0.5,0.2,1,0.2,1.7
	c0,0.5-0.1,1.2-0.5,2.2c-0.3,1-0.5,1.8-0.5,2.3s0.2,1.1,0.5,1.8c0.4,1,1.1,2.3,2,3.9l0.2,4.5c0.1,3,0.3,4.9,0.3,5.5
	c0.4,2.2,0.8,3.9,1.3,5c0.2,0.4,0.6,0.9,1.5,1.5c0.7,0.5,1.2,1.1,1.2,1.8c0.2,0.6,0.1,1.5-0.2,2.6c0,1,0.5,1.8,1.5,2.4
	c1.7,1,2.9,1.5,3.5,1.5c3.8-1.4,6.1-2.5,6.7-3.5c0.6-0.9,1.5-1.5,2.8-1.9c1.3-0.4,2.6-0.3,3.7,0.4c1.1,0.6,2,1.6,2.8,3
	c0.5,0.6,0.8,1.2,1,1.7l0.5,1.6c0.2,1.3-0.1,2.4-1,3.4c-1.1,1.3-1.9,2-2.1,2.3c-0.4,0.4-0.4,0.9-0.2,1.5c0.5,1,2,1.7,4.3,2l0.9,0.1
	c0.7,0.1,1.2,0.7,1.6,1.6c0.5,1,1.3,1.8,2.6,2.4c0.7,0.3,1.4,0.5,1.9,0.6l3,0.5l1.5-0.1c1.1,0,2.1,0.2,3,0.9c1.4,1,2.6,2,3.7,3
	l0.3,0.7c0.1,0.6,0.2,1.3,0.2,2c0,1.2,0.2,2.8,0.5,4.8l4.2,1.9c0.7,0.5,0.1,0.9-1.9,1.3c-0.8,0.2-2.2,0.3-4.1,0.4l-2.5-0.1
	c-0.6,1.7-0.9,2.9-0.9,3.7l-1.8,0.5l0.5,3l3.3,2l-0.4,0.7c0.1,0.3,1,0.4,2.6,0.1c1.3-0.3,2.5-0.6,3.9-1.1c0.8-0.3,1.6-0.5,2.4-0.4
	c0.5,0.1,1.6,0,3.1-0.4c1-0.1,1.5,0.1,1.6,0.6c0.3,1.2,0.4,2,0.3,2.4c0,0.7-0.5,1.3-1.3,1.6c-0.3,0.2-1.8,0.3-4.3,0.2
	c-1.3-0.1-0.6,0.3,2.1,1.1c3,0.8,5.1,1.4,6.2,1.6c0.8,0.1,2.3,0.4,4.3,0.6c1,0.2,2.5,0.5,4.4,0.9c1.2,0.2,2.6,0.5,4.3,0.6
	c1.5,0.2,3.4,0.6,5.5,1.2c1.6,0.3,2.9,0,3.8-0.9c1.1-1,2.1-2.3,2.9-3.8c0.7-1.4,1.2-2.5,1.3-3.5c0.2-0.7,0.5-1.7,1.2-3l0.8-1.7
	l1.5-0.3c1.1,0,2,0.6,2.8,1.8c0.6,1,1.1,2,1.5,3.1c0.3,0.5,1,0.5,2,0.1c1.6-0.6,3.9-2.1,6.7-4.5c1.7,1.7,2.4,2.9,2.3,3.8
	c0,0.2-0.3,0.7-0.5,1.1c-0.2,0.3-0.2,0.7,0,1.1c0.3,0.9,2.3,2.4,6,4.5l1.6,2.2c2-2.5,3.4-4.1,4.2-4.9c0.3-0.4,0.6-0.6,0.8-0.8
	c0.4-0.3,0.8-0.7,1.2-1.1c1.2-1.3,2.4-2.7,3.7-4.3l0.2-0.1c0.1-0.2,0.3-0.3,0.4-0.5l3-1.7l0.5-2.6c0.2-0.6,0.6-1.1,1-1.5
	c1.1-1.5,2.9-2.4,5.5-2.7c2.5-0.2,5.1-0.2,8.1,0c0.8-0.1,1.6-0.4,2.2-1c0.5-0.7,0.9-1.5,1.3-2.6c1.1-3.3,1.7-5.4,1.9-6.2
	c0.3-1.1,0.4-2.2,0.4-3.6c0-1.1,0.1-3.3,0.4-6.7l0.3-8.3l-3.2-2.7c-1-1.5-1.9-3-2.5-4.8c-1.2-3.2-0.9-5.4,0.6-6.8
	c0.3-0.4,0.6-0.7,1-1c1.9-1.4,3.4-2.3,4.3-2.7l-3.9-3.5C717.9,488.6,716.9,487.7,715.8,486.7z"/>
<path id="malopolskie" class="st0" d="M545.8,646.9c2.4,0.7,4.4,1.2,6.2,1.8l-0.4-3.8l1.8-2.2l-1.5-1.3c-1.3-1.3-2.1-2.4-2.3-3.2
	c0-0.6,0-1,0.3-1.3l0.5-0.5l-2-2.5c-0.2-0.1-0.4-0.4-0.6-0.8c-0.4-0.8-0.7-1.9-0.7-3.2c0-1.2,0.4-2.2,1-3l1-0.7c-0.5-1-0.9-2-1.2-3
	c-0.2-0.6-0.3-1.3-0.3-2v-1c0-0.6-0.2-1.4-0.7-2.3c-0.8-1.7-2-3.2-3.5-4.5c-1.5-1.2-3.3-2-5.2-2.3l-2.3-0.1l-1-1.5l0.2-3.8l5.3-3.7
	c1.7-0.8,2.9-1.5,3.7-2c0.6-0.3,0.7-0.8,0.3-1.6l-0.8-0.9c-1.8-0.3-3.1-0.5-4-0.5c-1,0-2.5-0.6-4.5-1.8c-0.5-0.3-0.7-0.8-0.7-1.4
	c0.2-1.1,0.2-2.2,0.2-3.3c0-1.3,0.2-1.9,0.5-2.1c0.8-0.3,1.2-0.5,1.3-0.7c0.5-0.5,0.5-1.3,0.2-2.3l-0.7-1.4l0.5-2l3.7-2.5
	c-1.5-0.5-3.5-1.3-6-2.3c-1.5-0.6-2-1.3-1.3-2.1c1.1-0.9,1.8-1.7,2.1-2.4c0.4-0.6,0.5-1.3,0.5-2.1c-0.3-1-0.6-2.2-0.8-3.4
	c-0.3-1.8-0.5-2.8-0.5-3.3c-0.1-0.5,0-1.1,0.3-1.7c0.3-0.5,1.2-1.4,2.5-2.6c0.7-0.5,1.3-1.1,2-1.6c-0.3-0.7-0.4-1.6-0.3-2.8
	c0,0,0-0.1,0.1-0.3l-2.3,0.3c-0.6,0.1-1.5,0.4-2.5,0.9c-1.3,0.5-2,0.9-2.3,0.9c-0.5,0.2-1.4,0.6-2.5,1.3c-1.8,1.2-2.9,1.8-3.2,1.9
	c-1,0.6-2.3,1-3.8,1.1c-1,0.1-2.3,0.2-4,0.2c-0.8,0-1.8,0.1-3,0.1c-1.3,0.1-2.1,0.1-2.5,0.1c-0.5,0-1,0.3-1.7,0.8
	c-0.3,0.2-0.5,0.5-0.8,0.7l-3,3c-1.1,1.2-3,1.8-5.5,1.8c-0.7,0-1.4,0.1-2,0.2l-0.7,0.3h-5l-8.3,4.5c-0.6,0.4-1.2,0.4-1.7,0.2
	c-0.8-0.5-1.4-0.8-2-1.2c-0.8-0.4-1.2-1-1.1-1.6c0-0.4,0.3-1.1,0.8-2.2c0.5-0.7,1-1.3,1.5-1.6l0.5-0.4c-0.8,0-1.8,0-3.2-0.2
	c-0.9-0.1-1.5-0.4-1.6-1.1c-0.1-0.3,0-1,0.1-1.9l0.5-2.8c-0.3,0-1.1,0-2.3-0.2c-0.8-0.2-1.2-0.4-1.3-0.6c0-0.2,0.1-1.2,0.3-2.9
	c0.3-1.2,0.5-1.7,1-1.4c0.9,0.4,1.7,0.4,2.3,0.1c0.8-0.4,1-0.8,0.5-1.2c-0.9-0.9-1.4-1.5-1.5-1.8c-0.2-0.5-0.5-1.1-1-1.7
	c-0.6-0.9-1-1.6-1.3-2c0-0.2-0.3-0.5-0.7-1.3c-0.2-0.1-0.3-0.5-0.5-1.2c-0.1-0.7-0.5-1.2-0.8-1.8c-0.5-0.6-0.7-1.2-1-1.7
	c-0.2-0.7-0.9-1.1-1.7-1.2c-1.3-0.1-2.3-0.1-3-0.3c-0.8-0.2-1.5-0.2-2.2,0.1c-0.8,0.2-1.5,0.4-2.1,0.4c-0.8,0-1.4-0.2-1.8-0.5
	l-0.4-0.5c-0.1-0.2-0.5-0.4-1-0.7c-1-0.5-2.5-0.8-4.5-1.1c-2-0.1-3.5,0.1-4.6,0.8c-0.6,0.3-1,0.7-1.2,1l1,1.7l1.5,1.8l-6.7,2.5
	l-1.8,1.7c0,0-0.2,0-0.2,0.1c-3.6,0.3-6.2,0.5-7.5,0.7l-2,0.2l-0.5,1c-0.5,0.6-1.3,1-2.5,1c-1,0.1-2.3,0-3.7-0.5s-2.3-0.7-2.6-0.7
	c-0.5,0-0.9,0.1-1,0.3c-0.2,0.3-0.2,0.8-0.2,1.7c0,0.6,0.1,1.3,0.4,2.2c0.1,0.6-0.2,1.4-0.7,2c-0.4,0.7-1,1.3-1.7,1.7
	c-1,0.7-1.8,1.2-2.3,1.6c-0.2,0.2-1.6,0.8-4,1.7c-1.5,0.7-2.1,1.5-1.7,2.5c0.5,1.3,0.8,2,1.1,2.4c0.3,0.3,0.8,0.8,1.6,1.4
	c0.5,0.4,1.6,0.6,3.4,0.7c0.9,0.1,0.7,0.6-0.6,1.5c-2.3,1.7-4.7,4.2-7,7.5c0.5,0.2-0.3,0.4-2.3,0.8c-1.6,0.2-2.5,0.5-2.7,0.6
	c-0.3,0.3-0.5,1.1-0.5,2.4c0,0.9,0,2.2,0.2,3.6c-0.2,1.3-1,2.3-2.5,3.1c-0.7,0.5-1.7,0.9-2.9,1.2c-0.3,0.2-0.7,0.7-1.1,1.6
	c-0.3,1.1-0.7,2.2-0.9,3.5c-0.1,0.7-0.1,1.6-0.3,2.7c0,0.4-0.4,0.9-1,1.7c-0.4,0.3-0.1,0.7,0.7,0.8c1.5,0.4,2.8,0.5,3.8,0.5l0.5,2.8
	l1,0.4c0.6,0.5,0.7,1.5,0.2,2.8c-0.1,0.5-0.5,1.6-1.3,3.5c-0.4,0.9-0.4,1.5-0.2,2c0.3,0.4,1,0.7,1.8,0.8c1.5,0.2,2.6,0.3,3.2,0.4
	c1.5,0.4,2.2,0.7,2.3,0.8c0.2,0.2,0.3,0.7,0.5,1.5c0.2,1.2,0.3,2,0.4,2.2c0.2,0.7,0.6,1,1.1,1.3c0.9,0.4,1.9,0.5,3.2,0.5
	c0-0.2,0-0.3,0.1-0.5c0.4-0.2,1,0,2.2,0.5c1.8,0.9,3.4,1.6,4.7,2.2l1,1.8c-0.3,0.1-0.8,0.2-1.3,0.4c-0.9,0.3-1.6,0.8-1.9,1.3
	c-0.1,0.3-0.8,0.5-1.8,0.6c-0.5,0.1-0.1,0.6,1,1.7c1.3,1.3,2.8,3.7,3.8,5.7c0.1-0.1,0.2-0.1,0.2-0.2c0.2-0.2,0.4-0.3,0.6-0.5
	c0.6-0.5,1.2-0.2,1.8,0.9c0.5,1,1,2,1.5,2.9c0.3,0.7,0.6,1.6,0.8,2.9c0.1,1,0.1,2.1,0.1,3.5c0.2,1.1,0.9,2.6,2.3,4.5
	c1.2,1.5,2.4,3.2,3.6,5.1c0.9,1.2,2,1.8,3.2,1.7c0.8-0.1,1.8-0.3,3.1-0.5c0.7-0.2,1.3-0.2,1.9-0.1c0.5,0.2,1.1,0.1,2-0.1
	c0.6,0.2,1.1,1.3,1.2,3.1c0.2,1.6,0.3,2.9,0.3,4.1c0,0.9,0.1,1.8,0.3,2.7c0.1,1.1,0.6,2.1,1.3,3.1c0.3,0.4,0.6,0.7,0.9,0.9l-0.4,1.1
	c-0.2,0.4-0.5,0.8-0.9,1.1c-0.4,0.6-1,1.1-1.8,1.7c-0.1,0-0.9,0.4-2.4,1.1c0.1,0.2,0.3,0.5,0.7,0.8c1.1,0.9,1.7,1.4,1.7,1.4
	c0.2,0,0.8,0.1,1.9,0.3c0.2,0.1,1,0.3,2.3,0.6c0.6,0.1,1.1,0.1,1.6-0.3c0,0,0.1-0.1,0.1-0.1c0.6-0.6,1-1.1,1.3-1.3
	c0.6-0.5,1.4-0.8,2.3-1.2c0.1,0,0.2-0.1,0.3-0.1c0.2-0.2,0.3-0.5,0.5-0.9c0.1-0.1,0.2-0.2,0.5-0.2c0.1-0.1,0.2-0.3,0.2-0.4
	c0.2-0.5,1-0.2,2.6,0.9c2.2,1.6,4.5,3.3,6.8,5.2c-0.1-0.4-0.2-0.9-0.3-1.3c-0.4-2.3,0-4.4,1.1-6.3c1.2-1.8,2.3-3.5,3.5-5l0-0.1
	c0.2-0.2,0.3-0.4,0.5-0.6l0.3-0.3l0.5-0.7l0.1-0.1l0.5-0.5l0.9-0.6c0.7-0.3,1.4-0.4,2.1-0.4c1.1,0,2.6-0.2,4.5-0.6h2.4
	c-0.4-0.4-0.7-0.8-1.1-1.3c-1.1-1.5-1.1-2.4-0.2-3c0,0,0.1,0,0.1,0c0.1-0.3,0.3-0.5,0.6-0.7c0.9-0.5,2.1-0.8,3.8-1.1
	c0.7-0.1,1.4-0.1,2-0.1l1.7-1.9l0,0l0.6-0.6l4.2,2.5c0.9,0.9,2.2,1.4,3.8,1.8l4.8-1c0.7-0.2,2.1-0.8,4.1-1.7
	c1.1-0.5,1.9-0.4,2.3,0.1s0.4,0.5,0.2-0.1l3.4,4.9c1.3,1.6,2.3,2.5,3,2.5l1.3-0.4c0.9-0.1,1.6,0,2.1,0.4c0.2,0.1,0.4,0.4,0.7,0.9
	c0.2,0.2,0.8,0.5,1.9,0.8c1.3,0.5,2.6,0.6,3.8,0.2c0.8-0.2,1.4-0.5,1.8-0.8c0-0.1,0.1-0.1,0.2-0.2c0.3-0.3,0.6-1.4,1.1-3.3
	c0.3-1.3,0.8-2,1.2-2.2c0.3-0.5,0.6-0.7,0.9-0.7c0.1,0,0.2,0,0.2,0c0.2-0.4,0.4-0.9,0.6-1.6l0.3-2.2c-0.1-0.6-0.1-1.2,0-1.6
	c0.1-0.4,0.3-0.6,0.6-0.7c0.3-0.9,1-1,2.3-0.1c1,0.6,1.8,1.3,2.6,2c0.5,0.2,1,0.4,1.6,0.2c0.6-0.1,0.9-0.2,1.2-0.3
	c0.6-0.4,1.1-0.6,1.4-0.8c0-0.1,0-0.3,0-0.5c-0.1-0.6-0.2-1-0.2-1.2c-0.1-0.4,0.1-0.6,0.5-0.7c0,0,0,0,0,0
	C541.9,646.3,543.1,646.3,545.8,646.9z"/>
<path id="lubuskie" class="st0" d="M121,420.2c1.1,1.4,2.1,2.6,2.9,3.3c0.3,0.2,1.1,0.8,2.6,2c0.6,0.5,1.2,0.8,1.6,1.2
	c0.3,0.1,1.1,0.6,2.7,1.3c1.1,0.5,2.1,0.8,3.1,1.2c0.6,0.3,1.1,1,1.6,2c0.4,0.6,0.8,1.3,1.5,1.8c0.3,0.3,0.5,0.9,0.5,2
	c0,0.9-0.3,2.2-0.7,4c-0.1,0.6,0,1.2,0,1.8l1.3-1.6l6.8-2c0.3-0.3,1.6-1.1,3.7-2.5c1.4-0.8,2.3-1.4,2.5-1.7v-0.2h1.8l1.5,1.2
	l4.3,2.5l1.2-1.5v-2.5l-0.7-2c-0.2-0.5-0.2-1.1,0-1.7c0.6-0.8,1-1.7,1.5-2.5c0.5-1.1,1.3-1.5,2.3-1.1c0.6,0.2,1.4,0.6,2.4,1.1
	c4.1,0.7,7.2,1.9,9.5,3.5c0.1,0,1.2,0.9,3.1,2.5c0.4,0.2,0.8,0,1.2-0.5l3.2-5.3l0.3-5.5l9-0.2c0.3-0.5,0.5-1.3,0.7-2.3
	c0.1-0.9,0.3-1.5,0.4-1.9c0-0.6,0.1-1.4,0.1-2.3c0-1,0.1-1.8,0.1-2.8c0.2-1.7,0.3-2.7,0.4-3c0.1-1.2,0.4-1.9,0.8-2.2
	c1-0.5,2-1.2,3-2c1.2-1.1,2-1.5,2.3-1.3c0.2,0,0.3,0.2,0.2,0.5l1.7-2.7c0.4-0.5,1.4-1.9,3.3-4c1.1-1.4,1.7-1.8,1.8-1
	c0.1,0.4,0,0.8-0.1,1.5l4.8,3l5.7,0.5l-1.5,4l-0.2,2.2l0.9-0.5c0.7-0.2,1.4,0.1,2.1,1c0.6,0.8,0.5,1.8-0.4,2.8
	c-0.4,0.5-0.8,0.9-1.4,1.2l2.3,1l2.5,2.5c-0.2-0.7,0.3-1.8,1.5-3.5c0.5-0.7,1.2-1.7,2.2-2.7c1.2-1.2,2.3-2.5,3.5-4
	c1.4-1.8,2-2.8,2-3.2c-0.2-0.3-0.2-0.8,0-1.6c0.2-1,0.5-1.3,1-1.1l0.5-3.9c0-0.7-0.1-1.3-0.2-2c-0.4-1.4-1.1-2.3-2.3-2.7
	c-1.2-0.5-2.6-1.1-4.6-2.1l-2.1-1.2l-4,3c-2.9-1.4-4.8-1.9-5.8-1.7c-0.7,0-1.1,0-1.6-0.2l-0.4-0.3c0.6-0.7,1.1-2.2,1.3-4.5
	c0-1.5,0-2.8-0.4-4l-0.4-1.3c0.1-0.2,0-0.4-0.2-0.5c-0.2-0.2-0.9,0-1.8,0.5c-1.5,0.8-2.4,1.3-2.5,1.3l-2.2-1.3l-1-1.5l-0.8-2.2
	c-0.1-0.2-0.1-0.7,0-1.5c0.5-0.8,0.9-1.3,1-1.6c0.3-0.6-0.1-1-1.2-1.4l-5.3-1.8c-0.9-0.2-1.5-0.3-1.7-0.4c-0.4-0.1-0.5-0.4-0.3-1.1
	c0.5-1.5,0.8-2.7,1-3.5l-0.4-1.5c-0.4-1.2-0.4-3.4-0.1-6.5c0.2-2.2,0.3-4.5,0.2-7c0-0.8,0.2-1.5,0.8-2l2.3-2l0.5-2.7l-0.8-2.3
	l-2.5-3.2l-3-2.8l-1.2-4.2l0.8-1c0.7-0.3,1.1,0.2,1.4,1.7c0.3,1.1,0.2,2-0.1,2.9c-0.1,0.2,0.3,0.4,1.1,0.6c0.9,0.2,1.6-0.2,2.1-1.2
	l0.4-1.5c0.3-0.5,0.6-1,0.8-1.8c0.3-1.6-0.2-3.2-1.3-5c-2.2-3.3-3.2-5.9-3.2-7.7c-0.7-0.9-1.3-1.6-1.7-2.3c-0.9-1.3-0.8-2.8,0.2-4.5
	c1-1.7,1.6-3.5,1.9-5.2l0.1-2l2,0.8c1.5,0.6,2.4,0.9,3,0.9c0.8,0,1.5-0.1,2-0.2l1.5-1.8c0.1-1,0.2-1.9,0.2-2.7
	c0-0.6-0.1-1.3-0.2-2.4l-0.3-1.4c-0.1-0.2-0.1-0.5-0.1-0.7c0-0.5,0.5-0.8,1.4-0.8c1.3,0,2.1-0.2,2.5-0.5l-1-1.7l3.2-6.5l-0.7-3.8
	c-0.4-0.2-0.7-0.7-1-1.3c-0.5-1.4-0.6-3.2,0-5.4c0.2-1.2,0.5-2.3,0.6-3.1c0.2-0.9,0.3-1.7,0.4-2.4c0-1.1,0.1-2,0.2-2.5
	c0.1-0.8,0.1-1.6,0.2-2.5l0.1-1c-0.9-1-1.8-1.5-2.8-1.5l-5,0.2l-0.4,0.2c-0.2,0.3-0.3,0.6-0.3,1.3c0,0.2,0.5,0.8,1.6,1.8
	c0.6,0.5-0.3,0.9-2.4,1.2c-2.3,0.3-4,0.8-5.1,1.4c-0.5,0.4-0.8,0.6-0.9,0.9l1.8,1.7l0.4,0.3c0.2,0.3,0.1,0.8-0.4,1.5
	c-0.9,1-1.7,1.6-2.3,2l-4.7-0.3c-0.2,0-0.4-0.1-0.6,0c-0.5,0.1-1.1,0.5-1.7,1.3c-0.7,0.7-1.5,1-2.6,1.1l-1.4-0.1
	c-1.1-0.7-1.7-1.5-1.7-2.3c0.5-1.3,0.8-2.2,0.8-2.7c0-1-1.4-0.6-4.1,1c-4.4,2.5-7.4,3.8-9.2,4.2l-3,0.3l-3.5-0.8l-0.4,0.7
	c0,0.6,0.2,1.1,0.9,1.8c0.3,0.3,0.7,0.6,1.2,1c0.1,0.1,0.3,0.5,0.5,1c0.2,0.6-0.9,1.8-3.2,3.5c-1.2,0.8-2.4,1.5-3.5,2.3
	c-0.5,0.6-1.8,1.1-3.8,1.5c-1.3,0.2-2.5,0.2-3.9,0.2h-1.6l-3-1.2l-1.3-2.5c-0.2-0.3-0.5-0.3-0.7-0.3c-0.6,0-1,0.5-1.3,1.5
	c-0.1,0.8-0.2,1.5-0.2,2c0,0.3-0.1,0.8-0.3,1.3c-0.1,0.5-0.5,1.7-1,3.7c-0.6,1.8-1.7,3-3.2,3.5c-0.8,0.3-2.4,0.5-4.8,0.5
	c-1.4,0-1.8,0.5-1.5,1.5c0.8,2,1.2,3.3,1.3,3.8c0.1,0.4,0.2,1,0.5,1.9c0,0.6-0.2,1.1-0.8,1.3c-0.8,0.3-2.3,0.6-4.7,0.8l-4.3,0.2
	l-4,1.5l-1.8,1.7c0.6,0.5,1.6,1.1,2.9,2c0.9,0.8,1.7,1.3,2.6,1.8c0.3,0.3,0.4,1,0.2,2.2c-0.1,0.8-0.3,1.3-0.4,1.5
	c-0.2,0.1-0.2,0.8-0.4,2c0,0.6,0.2,1.6,0.8,3c0.2,0.6-0.2,1.5-1.5,2.8c-0.3,0.3-0.5,0.6-0.8,0.8c-0.6,0.6-1.2,1.2-1.7,1.8
	c-0.8,0.9-1.4,1.7-1.8,2.4l-0.6,0.8c-0.5,1-0.4,2.2,0.2,3.9c0.6,2.1,1,3.6,1.1,4.1c0.2,0.7,0.3,1.5,0.3,2.4c0,0.3-0.2,0.6-0.7,1
	c-0.1,0.1-0.2,0.3-0.4,0.4c0.1,0.3,0.5,0.9,1.4,1.6c0.7,0.6,1.7,1.1,2.9,1.7c0.7,0.3,1.3,1.1,1.8,2.3c0.6,1.1,1.2,2.4,2,3.9
	c0.6,1.4,0.8,3.1,0.6,5.4c-0.2,1.5-0.7,2.8-1.4,4c-0.3,0.5,0,1.2,0.8,2.2c0.6,0.6,1.3,1.1,2.5,1.6c0.3,0.2,0.5,1.1,0.5,2.7
	c0,1.3,0.1,2.1,0.2,2.3c0,0.2-0.2,1.5-0.6,4.2c-0.5,2.8-1.7,5.8-3.7,9c-1.6,2.5-3.3,4.7-5.1,6.5c-0.1,0.1-0.3,0.2-0.4,0.4
	c-0.1,0.1-0.1,0.2-0.2,0.2c-0.2,0.2-0.3,0.3-0.5,0.5c-0.7,0.8-1.1,1.4-1.2,1.7c-0.1,0.7,0.4,1.5,1.3,2.4c0.6,0.6,1.1,0.6,1.6,0.3
	c0.2,0,0.4,0.9,0.6,3c0.2,0.9,0.3,2.3,0.4,4.4c0,0.4,0.3,1.1,0.9,1.8c0.4,0.6,0.9,0.9,1.4,1.1c0.5,0.2,1.1,1,1.9,2.2
	c1.5,2.5,2.4,4,2.6,4.4c0.5,1.5,0.3,2.9-0.6,4.1c-0.2,0.2-0.4,0.3-0.6,0.5c0,0-0.1,0.1-0.1,0.1c-0.5,0.7-1.9,1.4-4.1,2.2
	c-0.2,0.1-0.4,0.2-0.5,0.2C120.4,419,120.5,419.6,121,420.2z"/>
<path id="zachodnio-pomorskie" class="st0" d="M95,285.8c0.5,0.2,1.2,0.7,2,1.4c4.8,4.3,7.2,6.5,7.3,6.6c3.9,3.8,6.6,7,7.9,9.7
	c1.4,2.5,2.7,4.2,3.9,5.1c0,0,0.1,0.1,0.2,0.1l1.8-1.7l4-1.5l4.3-0.2c2.4-0.2,3.9-0.5,4.7-0.8c0.6-0.2,0.8-0.7,0.8-1.3
	c-0.3-0.9-0.4-1.5-0.5-1.9c-0.1-0.5-0.5-1.8-1.3-3.8c-0.3-1,0.1-1.5,1.5-1.5c2.4,0,4-0.2,4.8-0.5c1.5-0.5,2.6-1.7,3.2-3.5
	c0.5-2,0.9-3.2,1-3.7c0.2-0.5,0.3-1,0.3-1.3c0-0.5,0.1-1.2,0.2-2c0.3-1,0.7-1.5,1.3-1.5c0.2,0,0.5,0,0.7,0.3l1.3,2.5l3,1.2h1.6
	c1.4,0,2.6,0,3.9-0.2c2-0.4,3.3-0.9,3.8-1.5c1.1-0.8,2.3-1.5,3.5-2.3c2.3-1.7,3.4-2.9,3.2-3.5c-0.2-0.5-0.4-0.9-0.5-1
	c-0.5-0.4-0.9-0.7-1.2-1c-0.7-0.7-0.9-1.2-0.9-1.8l0.4-0.7l3.5,0.8l3-0.3c1.8-0.4,4.8-1.7,9.2-4.2c2.7-1.6,4.1-2,4.1-1
	c0,0.5-0.3,1.4-0.8,2.7c0,0.8,0.6,1.6,1.7,2.3l1.4,0.1c1.1-0.1,1.9-0.4,2.6-1.1c0.6-0.8,1.2-1.2,1.7-1.3c0.2-0.1,0.4,0,0.6,0
	l4.7,0.3c0.6-0.4,1.4-1,2.3-2c0.5-0.7,0.6-1.2,0.4-1.5l-0.4-0.3l-1.8-1.7c0.1-0.3,0.4-0.5,0.9-0.9c1.1-0.6,2.8-1.1,5.1-1.4
	c2.1-0.3,3-0.7,2.4-1.2c-1.1-1-1.6-1.6-1.6-1.8c0-0.7,0.1-1,0.3-1.3l0.4-0.2l5-0.2c1,0,1.9,0.5,2.8,1.5l-0.1,1
	c-0.1,0.9-0.1,1.7-0.2,2.5c-0.1,0.5-0.2,1.4-0.2,2.5c-0.1,0.7-0.2,1.5-0.4,2.4c3.9,1.1,5.9,1.6,6,1.7c0.4,0.1,1.4-0.1,3.4-0.4
	c1.3-0.2,2.9-0.5,4.6-0.6c1.4-0.1,2.2-0.3,2.6-0.4c0.4-0.2,1-0.3,1.7-0.5c0.6-0.2,1.1-0.4,1.6-0.5c0.4-0.2,0.8-0.2,1.2-0.3
	c0.3,0,0.8-0.4,1.3-1.2c0.6-0.9,1.1-2,1.6-3.4c0.6-1.3,0.9-2.5,0.9-3.3v-4.8l1.1-1c0.8-0.7,1.6-1,2.4-1c1.1,0,2.1-0.1,3-0.2
	c0.8-0.2,1.6-1,2.5-2.3c-0.4-0.4-0.5-0.8-0.5-1.2c0-0.9,0.7-1.3,2.2-1.3c2.4,0,3.3-1.4,4.5-3.7c0.6-0.3,3.3-0.3,7.9,0
	c3.5,0,3.1-1-1.1-3c-2.4-1.2-6.3-2.8-11.8-5.1c-2.5-1.1-3.7-1.9-3.7-2.4V233l1-2.7c-0.6-0.5-1-1-1.4-1.3c-0.5-0.9,0-1.2,1.6-1
	c1.3,0.2,2,0.3,2.4,0.3c0.2,0.1,1,0.2,2.6,0.2c1.7,0.1,3.2-0.1,4.5-0.5c0.7-0.2,1.2-0.5,1.5-0.7l1.1-1.2c0.8-0.8,1.3-1.6,1.7-2.1
	c0.5-0.8,1.1-2.2,2-4.2l1.1-1.3c0.9-0.8,1.5-1.3,2.1-1.5c0.3-0.1,0.9-0.5,1.8-1.2c0.9-0.7,1.7-1.1,2.5-1.3c0.5-0.2,1.1-0.6,1.5-1.3
	c0.2-0.4,0.9-0.1,1.5,0.6c0.6-1.4,1-2.4,1-3c0-0.5-0.2-1.2-0.5-2c-0.3-1-0.5-1.8-0.5-2.3c0,0-0.2-0.7-0.5-2.1
	c-0.1-0.6-0.1-1.3,0-1.9c0-0.7,0.2-1.2,0.6-1.5c0.2-0.4,1.1-1.4,2.6-3c1.2-1.4,1.3-2.1,0.3-2.2c-2.3-0.5-3.8-1-4.5-1.5
	c-1.5-1.1-2-1.8-1.6-2.4c0.2-0.3,0.7-0.7,1.6-1.4c0.2-0.5,0.7-0.7,1.4-0.7c1.2-0.2,2.5-0.4,3.6-0.8c1.4-0.5,1.9-1.6,1.4-3.2
	l-1.2-2.3c-0.6-0.2-1.6-0.7-2.7-1.7c-0.8-0.7-1.1-1.3-1.2-1.8c0.1-0.8,0.2-1.6,0.2-2.2c0-0.9-0.3-1.2-0.8-0.9l-0.7,0.6
	c-1.9,0.8-3.2,1.1-4,1c-0.5-0.1-0.6-0.3-0.4-0.5c0.5-0.8,1-1.4,1.1-1.7c0.3-0.8,0.5-1.5,0.5-2.3c0-0.8,0-1.5,0-2
	c0-0.6-0.2-2.2-0.7-4.9c-0.5-3.5-0.9-5.7-1-6.6c-0.3-1.4-0.5-2.2-0.9-2.5c-0.7-0.5-1.3-1.1-1.6-1.7c-0.5-0.9-1-1.8-1.7-2.8
	c-0.4-0.7-0.8-1.3-1.1-2c-0.3-0.7,0-1.1,0.9-1.3c0.6-0.2,1.5-0.4,2.9-0.7c3.1,0.3,4.3-1.2,5.5-5.5l-1-5.7c0.1-2.3,0.5-2.9,1.1-2.1
	c0.1,0.1,0.3,0.2,0.4,0.4c-0.4-1.1-0.5-2-0.3-2.8c0.3-1.2,0.4-1.6,0.3-1.3c0-3.5-0.2-5.6-0.5-6.5c-0.4-0.8-1.6-1.6-3.8-2.5l-0.5-1.4
	c-0.1-0.5-0.7-2.5-1.3-4.5c-2.6,0.5-5.3,0.7-8.2,0.8c-3.1,0-6,1.4-8.8,4.1c-1.3,1.3-2.5,3-3.8,4.9c-2.1,3.4-3.6,5.8-4.6,7.3
	c-0.9,1.2-1.7,2.2-2.5,3c-1.1,1.3-2.2,2.3-3.3,2.9c-5.2,2.8-7.9,4.3-7.9,4.3c-2.2,0.9-6.2,1.8-12.1,2.7c-4.9,0.8-8.7,1.7-11.4,2.9
	c-2.7,1.1-5,1.9-6.8,2.1c-4.3,0.6-8.9,1.5-13.7,2.7c-6.2,1.4-11.8,3-16.6,4.8c-4.9,1.8-8.3,3.1-9.9,3.5c-0.9,0.3-2.6,0.7-5.4,1.3
	c-1.2,0.2-2,0.4-2.5,0.6c0.1,0.1,0.1,0.3,0.2,0.4c0,0.3-0.2,0.5-0.7,0.7c0,0.4-0.7,0.8-2.3,1.2c-0.3,0-2.8,0.4-7.4,1.1
	c-3.2,0.4-5.5,1-7.3,1.6c-1.2,0.5-3,1.4-5.5,2.9c-0.2,0.1-0.4,0.3-0.6,0.5c-0.3,0.6-0.4,1.2-0.3,1.9c0.1,0.3-0.1,0.5-0.6,0.5
	c0,0,0,0,0,0.1c0.1,0.6-0.7,0.8-2.7,0.5c-2.2-0.4-4-0.9-5.3-1.3c-1-0.3-1.7-0.5-1.9-0.5c-0.9,0-1.5,0-1.8,0.1
	c-0.1,0.6,0.3,1.4,1.1,2.5c1.9,2.5,3.6,5.1,5.5,8l1.6-1.4c-0.5-0.1-1-0.3-1.4-0.5c-0.5-0.5-0.4-1.1,0.4-1.8c0.2-0.3,0.5-0.5,0.9-0.8
	c1.1-0.7,2.3-1,3.4-0.8c0.5,0.1,1,0.3,1.3,0.6l3.8,1c2.5,0.5,3.8,0.8,4,0.8c2.1,0.7,3.3,1.7,3.5,2.9c0,0.5,0.5,1.3,1.1,2.5
	c0.3,0.3-0.1,1.1-1.1,2c0,0,0,0,0,0c-0.2,0.2-0.3,0.4-0.6,0.6c-0.1,0.2-1.3,0.8-3.5,2.1c-0.1,0.1-0.3,0.2-0.4,0.2
	c-0.4,0.7-0.6,1.6-0.5,2.9c0.1,2,0.4,3.5,1,4.8c0.3,0.7,0.7,1.5,1.3,2.4l2,3.8c-0.4-0.2-0.9-0.3-1.3-0.5l0.6,1.1
	c-2-0.6-3.8-1.6-5.5-2.8l-6-4.2c-0.6-0.4-1.4-0.9-2.4-1.3c-0.6-0.3-1.1-0.8-1.6-1.5l-1.3-1.8c-0.2,0.4-0.5,0.7-1,1.1
	c-0.3,0.3-0.7,0.7-1.3,1c-0.8,0.5-1.5,0.8-2.1,1c0.1,0.5,0.3,1.4,0.8,2.6c0,0.3,0.6,1.3,1.4,3.3c0.2,0.5,0.3,1.5,0.3,3
	c0,1.3-0.1,2.8-0.4,4.8c-0.1,1.5-0.2,2.5-0.1,2.9c0.1,0.5,0.4,1.1,0.9,1.8c0.8,1.1,1.3,1.9,1.6,2.5c0.4,0.6,0.7,1.3,1.2,2
	c0.3,0.8,0.4,2,0.3,4c-0.1,1.5-0.3,2.9-0.7,4.3c-0.2,1,0.3,2.6,1.2,4.7c0.3,0.6,1.1,2,2.6,4.3c0.3,0.6,0.3,1.5-0.3,2.4
	c-0.4,0.6-0.7,1.2-0.9,1.6c0,0.2-0.4,0.7-1.1,1.7c-0.2,0.2-0.5,0.5-0.8,0.7c-0.3,0.4-0.7,0.7-1.2,1c-0.1,0.4-0.2,0.9-0.4,1.8
	c-0.1,1.1-0.3,2-0.4,2.6c-0.1,0.2-0.1,0.9-0.1,2.1c0,2.4-0.1,4.2-0.4,5.3c-0.5,2.3-1.8,4.4-3.7,6.3c-0.3,0.3-0.6,0.7-1,1
	c-2.2,2.1-3.6,3.4-4.1,3.8c-0.4,0.4-1.1,0.9-2.1,1.7c-0.6,0.5-1.5,0.7-2.5,0.5c-0.1,0.5-0.2,1.3-0.2,2.4c0,1.1,0.2,2.8,0.7,4.8
	c0.1,0.6-0.2,1.5-1.2,2.5c-0.1,0.1-0.2,0.2-0.3,0.3c-0.1,0.1-0.2,0.2-0.3,0.3c-0.8,0.7-1.7,1.2-2.9,1.5c0.1,0.2,0.2,0.5,0.5,0.9
	C94.1,285.2,94.6,285.7,95,285.8z"/>
<path id="opolskie" class="st0" d="M329.8,585c0.4-0.1,0.8,0,1.2,0.2l-0.3-4.3l0.7-5.3l9.3-1.2c0.7-0.1,1.2-0.2,1.5-0.4
	c0.5-0.3,0.7-0.5,1-0.6c0.8-0.3,1-0.8,0.7-1.5l1.3-3l4.2-1h4.2l2.5-0.7c-0.5-1.7-1-3.2-1.5-4.6c-0.2-0.7-0.7-1.4-1.2-1.8
	c-0.9-0.8-1.5-1.3-1.8-1.6c-0.6-0.8-0.7-1.4-0.2-2l1-0.6l-1-2.2l-0.8-3c0.4-0.3,0.8-0.8,1.2-1.3c0.8-1.1,1.3-2.4,1.6-3.7
	c0.3-1.3,0.2-2.6-0.3-3.7l-1-1.3l3.5,1.5c0.8,0.3,1.3,0.2,1.5-0.2c0.3-0.4,0.4-1.1,0.5-2.3c0.2-0.9,0-1.6-0.2-1.8l-0.5-0.2
	c-0.5-1.7-0.6-2.9-0.3-3.8c0.3-0.4,0.8-0.6,1.5-0.4c1.1,0.1,1.8,0.3,2,0.2c0.5-0.1,1.3-0.1,2.7-0.1c1.3,0,2.2-0.1,2.6-0.1
	c2.5-0.6,3.9-2,4.2-4.6c0.3-1.3-0.2-2.1-1.4-2.4c-2.5-0.6-4.1-1.1-4.8-1.6c-1.6-0.9-2.7-1.9-3.1-2.9c-0.2-1.4-0.5-2.5-0.9-3.5
	c-0.4-1.2-0.3-2.1,0.2-2.6c1-0.4,1.8-1,2.3-1.7l2.2-2.5c-1.1-1.2-1.7-2.2-1.7-3c0-1.7,0.4-3.3,1-5c0.5-1.1,0.8-1.7,1.2-2.1l0.3-0.1
	c1-0.9,2-1.9,3-3c0.8-1,1.3-1.6,1.5-2.1c0.4-0.5,0.5-1.1,0.5-1.7c0-0.3-0.1-0.9-0.3-1.8c-0.1-0.9-0.2-1.5-0.2-2.2c0-0.9,0-1.6,0-1.9
	c0.1-0.5,0.2-1.2,0.5-1.9c0.2-0.5,0.5-1.2,0.9-2c0.7-1.2,1.1-1.9,1.1-2c0.3-0.6,0.3-1.2,0.2-1.8l-0.5-0.6l-0.2-0.2l-3-2.1
	c-0.6-0.4-0.8-0.8-0.7-1.1c0.4-0.6,0.5-1.3,0.4-2.2c0-1.1-0.6-1.8-1.5-2h-1.5l-2,1v2.8l-2-1.8l-4.7-2.4l-5.3-1.3
	c-0.9-0.2-1.7-0.3-2.5-0.4l-0.9-0.1l-2.8-1.2h-2.5l-3.4-1.5l-2.8,1.8l-2.3,0.7l-2.2,3c-0.5,0.7-1.4,1.1-2.5,1.3
	c-0.8,0.1-1.9,0.1-3.2,0.2h-3.1l-1.5-0.7l-2.5-2l1.8-0.5l1.5-2.5l-0.5-1.8l-3-1l-6,1c-2.5,0.4-4.7,0.5-6.5,0.5c-0.7,0-1.2,0-1.5,0
	l-2.8,0.3l-0.5,3.2v1.5l1.3,3.3l-3,3l-1,2.7l2.2,6l-4,0.5l-5,4l-1,4.8l-2.7-2l-0.6,0.3c-0.4,0.3-0.6,0.7-0.7,1.2
	c-0.1,0.8-0.1,1.8,0,3l-1,2c-0.5,0.8-0.7,1.3-0.7,1.5l0.1,0.5c0.1,0.3,0,0.8-0.1,1.5c-0.1,0.2-0.2,0.8-0.3,1.8
	c0,0.5-0.2,0.8-0.7,0.9l-2.8,0.5h-2.7l-0.3,1.4c-0.1,1.1-0.1,2,0,2.9c0.1,0.8-0.2,1.8-0.9,2.9c-0.3,0.6-0.7,1-1.1,1.3l-0.5,1.3
	l4.5,1.7l-0.2,1.2c-0.3,0.9-0.8,1.9-1.5,2.8c-1.2,1.5-2.2,2.4-3,2.5c-1.4-0.1-2.5-0.1-3.3,0c-1.4,0.3-2.2,0.5-2.5,0.6
	c-1,0.4-1.7,0.8-2,1.4c-0.5,1-0.8,2.2-1,3.5l-0.2,2.8l-1.3,1.5l-2.7,0.7l-3,2.8c0,0,0.1,0,0.1,0l-0.2,0.1l-0.6,0.6
	c0.1,0,0.1,0,0.2,0l-0.3,0.1l-0.1,0.1c0.3,0.6,1.4,1.3,3.2,2.4c0.8,0.5,3.3,1.6,7.6,3.5c2.4,1.1,4.2,2.4,5.4,3.8
	c1,1.1,1.6,2.1,1.7,3.1c0.1,0.5,0.6,0.9,1.5,1.4c1.1,0.5,1.7,0.7,2,0.7c0.6,0.2,1.2,0.4,1.6,0.5c0.4,0.1,1,0.1,2-0.1
	c0.3,0,0.4,0.6,0.4,1.9c0,1.1,0,2,0,2.8c0,0.4,0.1,0.9,0.3,1.4c0.6-0.4,1.1-0.8,1.5-1.2c0.1-0.2,0.3-0.3,0.4-0.5
	c0.3-0.5,0.6-0.8,0.9-1c0.1-0.2,0.2-0.3,0.3-0.5c-0.9-2.3-1-2.8-0.3-1.7c0.4,0.6,0.7,1,0.8,1.3c0,0,0.1,0,0.1,0
	c0.6,1.3,1,2.8,1.5,4.4c0.1,0.6,0.5,1.1,1.1,1.3c0.6,0.3,1.5,0.3,2.9,0c0.8-0.2,2.1-0.6,4.1-1.2c0.7-0.1,1.8-0.2,3.1-0.1
	c1,0.2,2-0.2,3.1-0.9c0.2-0.2,0.4-0.4,0.6-0.6c0.2-0.3,0.4-0.6,0.6-0.9c0.1-0.2,0.2-0.3,0.5-0.5c0,0,0.1-0.1,0.1-0.1
	c0.2-0.5,1-0.8,2.4-0.9c0.7-0.1,2-0.6,3.9-1.7c0.5-0.3,0.5,0.7-0.1,3.2c-0.8,3.5-1.2,5.4-1.3,5.5c-0.1,0.7-0.2,1.5-0.2,2.5
	c0,0.7,0.7,1.2,1.9,1.8c0.3,0.1,0.2,0.4-0.5,0.7c0.3,0.3-0.2,0.7-2,1.2c-2.3,0.7-3.7,1.2-4.1,1.3c-0.6,0.2-1.6,0.3-2.9,0.4
	c-0.4,0-1.7-0.2-4-0.7c0,0-0.1,0-0.1,0c0,0.3,0.2,0.8,0.4,1.3c0.6,1.2,1.2,2.5,1.7,3.7c0.3,0.5,1.2,1,2.3,1.3
	c0.8,0.2,1.6,0.2,2.5,0.2c0.5-0.1,1.2,0.2,2.1,0.8c1,0.9,1.7,1.5,2,2c0.2,0.3,0.4,1,0.7,2.2c0.2,0.8,0.3,1.5,0.3,2
	c0.1,0.2,0.9,1,2.2,2c0.3,0.3,1.5,1.6,3.7,3.9c1.1,1.3,2,1.7,2.8,1.4c0.7-0.3,1.6-0.8,2.6-1.5c0.9-0.7,1.6-1.1,1.9-1.3
	c0.6-0.2,1.1-0.3,1.6-0.3c0.3,0.1,1.1,0.2,2.2,0.3c0.8,0.1,1.5,0.2,2,0.1l-1.6-5.9l0.7-0.3l-0.1-0.4L329.8,585z"/>
<path id="dolnoslaskie" class="st0" d="M258.7,540.7C258.7,540.6,258.7,540.6,258.7,540.7c0.3-0.2,0.6-0.2,1-0.2l3-2.8l2.7-0.7
	l1.3-1.5l0.2-2.8c0.2-1.3,0.5-2.5,1-3.5c0.3-0.6,1-1,2-1.4c0.3-0.1,1.1-0.3,2.5-0.6c0.8-0.1,1.9-0.1,3.3,0c0.8-0.1,1.8-1,3-2.5
	c0.7-0.9,1.2-1.9,1.5-2.8l0.2-1.2l-4.5-1.7l0.5-1.3c0.4-0.3,0.8-0.7,1.1-1.3c0.7-1.1,1-2.1,0.9-2.9c-0.1-0.9-0.1-1.8,0-2.9l0.3-1.4
	h2.7l2.8-0.5c0.5-0.1,0.7-0.4,0.7-0.9c0.1-1,0.2-1.6,0.3-1.8c0.1-0.7,0.2-1.2,0.1-1.5l-0.1-0.5c0-0.2,0.2-0.7,0.7-1.5l1-2
	c-0.1-1.2-0.1-2.2,0-3c0.1-0.5,0.3-0.9,0.7-1.2l0.6-0.3l2.7,2l1-4.8l5-4l4-0.5l-2.2-6l1-2.7l3-3l-1.3-3.3v-1.5l0.5-3.2l2.8-0.3
	c0.3,0,0.8,0,1.5,0c1.8,0,4-0.1,6.5-0.5l6-1l-2.3-2.5l-0.7-4.5c-0.9-1.5-1.3-2.6-1.3-3.5l0.3-4.5l-0.7-1.7l-0.1,0.5l0.1-0.5l0.9-6.3
	c-0.8-0.1-1.7-0.1-2.5,0l-4.2,0.8h-3.8l-1.5-0.8l-1.2-1.2l-0.5-3.8l-2-4l4.5-1.5c0.4-1,0.5-2.1,0.4-3.4c-0.3-2.4-1.8-4.1-4.4-5
	c-2.8-1-5-1.8-6.8-2.5l-3.7-1.8h-5.5l-1.8,0.5l-0.2,0.3c-0.2,0.4-0.3,1-0.3,2v4.2l-2.5,0.5l-4.7-1.2l-2.5-1c0.8,2.5-1.5,3.2-6.3,3.2
	c0,0,0,0,0,0c0,0,0,0,0,0c-0.1-0.1-1-0.6-2.7-1.7c-1.3-0.9-2.9-1.6-4.9-2.4l-2.6-0.9l-1.5-3.7l-1.3-1.5l-5.7-1.8l-1.8-2.7l0.5-6.3
	c0.7-0.3,1-0.7,1.2-1.2c0.2-0.9-1-1.8-3.7-2.8c-2.7-1-4.8-1.8-6.3-2.6l-1.7-0.4c-2.1-1.7-3.2-2.5-3.5-2.6c-0.5-0.2-0.8,0.1-1,1.1
	c-0.2,0.8-0.2,1.3,0,1.6c0,0.4-0.6,1.4-2,3.2c-1.2,1.5-2.3,2.8-3.5,4c-1,1-1.7,2-2.2,2.7c-1.2,1.7-1.7,2.8-1.5,3.5l-2.5-2.5l-2.3-1
	c0.6-0.3,1-0.7,1.4-1.2c0.9-1,1-2,0.4-2.8c-0.7-0.9-1.4-1.2-2.1-1l-0.9,0.5l0.2-2.2l1.5-4l-5.7-0.5l-4.8-3c0.1-0.7,0.2-1.1,0.1-1.5
	c-0.1-0.8-0.7-0.4-1.8,1c-1.9,2.1-2.9,3.5-3.3,4l-1.7,2.7c0.1-0.3,0-0.5-0.2-0.5c-0.3-0.2-1.1,0.2-2.3,1.3c-1,0.8-2,1.5-3,2
	c-0.4,0.3-0.7,1-0.8,2.2c-0.1,0.3-0.2,1.3-0.4,3c0,1-0.1,1.8-0.1,2.8c0,0.9-0.1,1.7-0.1,2.3c-0.1,0.4-0.3,1-0.4,1.9
	c-0.2,1-0.4,1.8-0.7,2.3l-9,0.2l-0.3,5.5l-3.2,5.3c-0.4,0.5-0.8,0.7-1.2,0.5c-1.9-1.6-3-2.5-3.1-2.5c-2.3-1.6-5.4-2.8-9.5-3.5
	c-1-0.5-1.8-0.9-2.4-1.1c-1-0.4-1.8,0-2.3,1.1c-0.5,0.8-0.9,1.7-1.5,2.5c-0.2,0.6-0.2,1.2,0,1.7l0.7,2v2.5l-1.2,1.5l-4.3-2.5
	l-1.5-1.2h-1.8v0.2c-0.2,0.3-1.1,0.9-2.5,1.7c-2.1,1.4-3.4,2.2-3.7,2.5l-6.8,2l-1.3,1.6c0,0.3,0.1,0.6,0.2,1c0.2,0.8,0.5,1.6,1,2.4
	c0.1,0.2,1,1.1,2.6,2.9c0.4,0.4,0.4,1.9,0.2,4.4c-0.3,2.4-1.2,5.3-2.6,8.8c-1.7,4-2.6,6.4-2.7,7.2l0.9,8.5c0.2-0.2,1,0.2,2.1,1.2
	c1.5,1.1,2.4,2.3,2.8,3.3c0.3,0.4,1.8,0.6,4.5,0.5c1.4-0.1,3.2-0.4,5.4-1.1c0.6-0.2,1.3,0.3,2,1.6c1.1,1.7,1.8,2.8,1.9,3.2
	c0.3,0.6,0.3,1.5,0.1,2.8c0,0.2-0.5,1-1.5,2.1c-0.5,0.5,0.2,1.4,1.8,2.6c0.8,0.6,2.2,1.4,4.1,2.4c0.6,0.4,0.9,1,0.9,2.1v4.8l1.4-0.3
	c1.5,0.1,3.7,0.5,6.6,1.5c2.3,0.8,3.8,1.4,4.4,1.8c0.5,0.4,1.8,0.9,3.9,1.5c2,0.5,3.7,0.7,5.2,0.6c0.7,0,1.5,0.4,2.5,1.1
	c0.5,0.4,1.8,0.9,4.3,1.5c1.5,0.5,2.4,1.6,2.7,3.5c0.3,2.1,0.8,3.3,1.5,3.5c0,0,0.9-0.1,2.5-0.5c0.7-0.1,1.5-0.8,2.5-2
	c0.5-0.5,0.5,0,0.2,1.5c-0.2,1.2-0.7,2.4-1.7,3.5c-0.4,0.6-0.2,1,0.7,1.5c0.5,0.2,1.1,0.7,1.9,1.5c0.2,0.3,0.8,0.1,1.7-0.5
	c0.4-0.3,0.8-0.6,1.2-1c0.2-0.2,0.4-0.5,0.6-0.8l0.8-1.3l0.2,0l0.4-0.6l2.3,0.3c1.7,0.4,2.9,0.8,3.7,1.4c0.7,0.5,1.3,0.8,1.7,0.9
	c-0.1-0.6-0.2-1.2-0.2-1.8c-0.1-1,0.2-1.6,0.7-1.7c0.3-0.6,0.9-0.8,1.8-0.6c1.1,0.3,2.1,0.5,3,0.5c0.7,0.1,1.6,1.1,2.8,2.7
	c0.9,1.4,2,2.8,3.3,4.2c0.7,1.2,1.1,2.5,1.1,4.1c0,1.2,0.2,2.5,0.5,3.7c0,0.4-0.2,0.7-0.7,1c-0.2,0.6-1.1,1.1-2.6,1.4
	c-0.2,0-1.7,0.1-4.6,0.3c-0.7,0.1-1.4,0.3-2,0.9c-0.2,0.2-0.4,0.5-0.6,0.7c-0.7,1.1-1.3,2-1.8,2.7c-0.2,0.2-0.3,1-0.4,2.3
	c0,0.3-0.3,1.1-1,2.2c-0.1,0.4,0.5,1,1.8,2c1.1,0.9,2.2,1.6,3.1,2.2c0.8,0.5,1.4,0.9,1.9,1.3c0.4,0.4,1,0.6,1.5,0.6
	c0.2,0.2,0.3,0.9,0.2,2.4c0,1.1-0.2,2.2-0.3,3c0,0.4,0.3,1,1,1.8c0.4,0.3,1,0.8,1.9,1.6c0.5,0.5,1,1,1.4,1.6c0.8,1,1.7,1.9,2.7,2.5
	l1.2-0.5c0.9,0.1,1.7,1,2.4,2.7c0.6,2,1,3.2,1.1,3.7c0.1,0.2,0.2,0.8,0.3,1.8c0.3,1.6,1.1,3.1,2.6,4.5c0.5,0.6,1,1,1.5,1.3
	c0.4,0.2,1.1,0.5,2.2,1c0.7,0.4,1.4,1,2.3,2c0.8,0.7,1.7,0.7,2.7,0c1-0.8,2-1.5,2.7-2.2c0.1-0.1,0.1-0.1,0.2-0.2
	c0.3-0.3,1.2-1.3,2.9-3.1c0.6-0.7,1.1-1.8,1.6-3.2c0.1-0.4,0.4-0.7,0.7-0.9c0.4-0.7,1.3-1.1,2.6-1.2c2.7-0.1,4.7-0.6,6-1.5l2,1.2
	c0.7,0.2,1.2,0.4,1.5,0.3c0,0,0,0,0,0c0.3-0.7,0.5-1.2,0.6-1.5c0.3-0.5-0.1-2-1.1-4.3s-2-3.6-3-4c-1.3-0.5-1.9-0.9-2-1
	c-0.5-0.6-0.9-1.5-1.2-2.8c-0.4-1.4-0.8-2.6-1.3-3.5c-0.9-1.2-1.5-2.1-1.6-2.3c-0.3-0.4-0.3-0.9,0.1-1.7c0.2-0.7,0.6-1.2,1-1.7
	c0.1-0.1,0.3-0.3,0.4-0.4c0.1-0.1,0.1-0.1,0.2-0.2c0.2-0.2,0.4-0.4,0.6-0.7c0.2-0.2,0.3-0.3,0.5-0.5c0.1-0.1,0.3-0.3,0.4-0.4
	c0.1-0.1,0.1-0.1,0.2-0.2C257.1,541.5,257.8,541,258.7,540.7z"/>
</svg>
